<svg width="245" height="188" viewBox="0 0 245 188" fill="none" xmlns="http://www.w3.org/2000/svg">
<path d="M152.038 12.9018V144.01L151.588 149.469C150.799 158.945 146.832 167.863 140.345 174.744C139.425 175.718 138.463 176.64 137.458 177.51C136.222 178.589 134.921 179.591 133.564 180.51C132.788 181.038 131.992 181.537 131.183 182.009C126.479 184.758 121.282 186.536 115.895 187.24H77.2889C74.2167 187.243 71.2477 186.118 68.9323 184.075C67.7861 183.065 66.8254 181.859 66.0946 180.51C65.0735 178.619 64.5395 176.497 64.542 174.342V12.9018C64.5463 9.48139 65.891 6.20229 68.2812 3.78366C70.6714 1.36504 73.9119 0.00434754 77.2922 0H139.291C139.438 0 139.582 0.00330196 139.729 0.00660251C139.823 0.00990305 139.918 0.0132046 140.012 0.0231063C140.139 0.0264068 140.267 0.0363091 140.391 0.0495112C140.55 0.0594129 140.707 0.0758953 140.864 0.0956986C141.007 0.115502 141.151 0.135306 141.294 0.15841C141.324 0.16171 141.35 0.168314 141.379 0.171615C141.562 0.20132 141.744 0.234324 141.924 0.273931C142.103 0.310237 142.286 0.353141 142.462 0.399348C142.589 0.432354 142.72 0.468662 142.847 0.504968C142.85 0.504968 142.857 0.508267 142.86 0.508267C143.235 0.620486 143.607 0.74921 143.972 0.897734C144.086 0.940642 144.2 0.990147 144.311 1.03966L144.36 1.05946C144.452 1.09906 144.54 1.13867 144.628 1.18158C144.892 1.3037 145.153 1.43902 145.41 1.58095C145.834 1.81741 146.245 2.07746 146.64 2.35989C146.767 2.44901 146.891 2.54472 147.012 2.64044C147.113 2.71635 147.214 2.79556 147.312 2.88138C147.32 2.88575 147.328 2.89131 147.335 2.89788C147.348 2.90778 147.361 2.92099 147.374 2.93089C147.462 3.0002 147.547 3.07281 147.628 3.14542C147.788 3.28404 147.945 3.42927 148.098 3.57779C148.141 3.6174 148.183 3.65701 148.225 3.69992C148.268 3.73952 148.307 3.78243 148.349 3.82533C148.392 3.86494 148.431 3.90785 148.47 3.94746C148.493 3.96778 148.515 3.98985 148.535 4.01347C148.653 4.13889 148.767 4.26761 148.878 4.39633C149.018 4.55806 149.155 4.72309 149.282 4.89141C149.393 5.03004 149.497 5.16866 149.599 5.31058C149.693 5.43929 149.781 5.56803 149.869 5.70005C149.893 5.73289 149.915 5.76705 149.935 5.80236C150.026 5.93769 150.111 6.07631 150.195 6.21493C150.407 6.56479 150.6 6.92785 150.776 7.29421C150.841 7.43284 150.903 7.56816 150.962 7.70678C151.037 7.87511 151.105 8.04344 151.171 8.21177C151.197 8.27448 151.22 8.34049 151.242 8.4032C151.278 8.49891 151.311 8.59463 151.344 8.69034C151.379 8.79596 151.415 8.90488 151.448 9.0105L151.526 9.26794C151.572 9.42307 151.611 9.57489 151.65 9.73001C151.673 9.82243 151.696 9.91485 151.715 10.0106C151.869 10.6846 151.968 11.37 152.012 12.0602C152.015 12.146 152.022 12.2285 152.025 12.3143C152.035 12.5091 152.038 12.7038 152.038 12.9018Z" fill="#3F3D56"/>
<path d="M152.038 12.9018V67.3015L143.943 76.1997C143.577 75.8103 143.218 75.4153 142.863 75.0148C142.358 74.4538 141.864 73.8839 141.382 73.3052C141.255 73.1566 141.134 73.0114 141.01 72.8629C140.688 72.48 140.374 72.0906 140.061 71.6978C137.228 68.1504 134.702 64.3628 132.51 60.3769C132.236 59.8785 131.969 59.3801 131.705 58.8752C129.325 54.3149 127.39 49.5307 125.928 44.5904C125.762 44.0326 125.602 43.4682 125.452 42.9038C124.243 38.4859 123.415 33.9704 122.976 29.4079C122.914 28.7643 122.859 28.124 122.813 27.4804C122.813 27.4639 122.81 27.4441 122.81 27.4275C122.758 26.7278 122.722 26.0281 122.689 25.3218C122.294 16.7816 123.254 8.23251 125.533 0H139.291C139.438 0 139.582 0.00330196 139.729 0.0066025C139.823 0.00990305 139.918 0.0132046 140.012 0.0231062C140.14 0.0264068 140.267 0.036309 140.391 0.0495112C140.55 0.0594129 140.707 0.0758953 140.864 0.0956986C141.007 0.115502 141.151 0.135306 141.294 0.15841C141.324 0.16171 141.35 0.168314 141.379 0.171615H141.382C141.565 0.20132 141.748 0.234324 141.927 0.273931C142.106 0.310237 142.289 0.353141 142.465 0.399348C142.592 0.432354 142.723 0.468662 142.85 0.504968C142.853 0.504968 142.86 0.508267 142.863 0.508267C143.238 0.620486 143.607 0.74921 143.972 0.897734C144.086 0.940641 144.2 0.990147 144.311 1.03966L144.36 1.05946C144.452 1.09906 144.54 1.13867 144.628 1.18158C144.892 1.3037 145.153 1.43902 145.411 1.58094C145.834 1.81741 146.245 2.07746 146.64 2.35989C146.767 2.44901 146.891 2.54472 147.012 2.64044C147.113 2.71635 147.214 2.79556 147.312 2.88138C147.32 2.88575 147.328 2.89131 147.335 2.89788H147.338C147.397 2.94739 147.456 2.9969 147.511 3.0464C147.55 3.07941 147.593 3.11242 147.628 3.14542C147.684 3.19163 147.736 3.24114 147.792 3.28735C147.818 3.31045 147.844 3.33355 147.867 3.35666C147.945 3.42927 148.02 3.50188 148.098 3.57779C148.141 3.6174 148.183 3.65701 148.225 3.69992C148.268 3.73952 148.307 3.78243 148.349 3.82533C148.392 3.86494 148.431 3.90785 148.47 3.94746L148.473 3.95076C148.497 3.96822 148.518 3.98939 148.535 4.01347C148.653 4.13889 148.767 4.26761 148.878 4.39633C149.018 4.55806 149.155 4.72309 149.282 4.89141C149.393 5.03004 149.497 5.16866 149.599 5.31058C149.693 5.43928 149.781 5.56802 149.869 5.70005C149.893 5.73289 149.915 5.76705 149.935 5.80236C150.026 5.93769 150.111 6.07631 150.195 6.21493C150.407 6.56479 150.6 6.92785 150.776 7.29421C150.841 7.43283 150.903 7.56816 150.962 7.70678C151.037 7.87511 151.106 8.04344 151.171 8.21176C151.197 8.27447 151.22 8.34049 151.243 8.4032C151.278 8.49891 151.311 8.59463 151.344 8.69034C151.379 8.79596 151.415 8.90488 151.448 9.0105L151.526 9.26794C151.572 9.42306 151.611 9.57489 151.65 9.73001C151.673 9.82243 151.696 9.91484 151.715 10.0106C151.869 10.6846 151.968 11.37 152.012 12.0602C152.016 12.146 152.022 12.2285 152.025 12.3143C152.035 12.5091 152.038 12.7038 152.038 12.9018Z" fill="#2C2C2C"/>
<path opacity="0.2" d="M152.042 29.4079V27.9028H142.863V4.39633H148.881C148.77 4.26761 148.656 4.13889 148.538 4.01347H148.535C148.518 3.98939 148.497 3.96822 148.473 3.95076V3.94746H148.47C148.431 3.90785 148.392 3.86494 148.349 3.82533C148.312 3.78113 148.271 3.73925 148.229 3.69992H148.225C148.183 3.65701 148.141 3.6174 148.098 3.57779C148.02 3.50188 147.945 3.42927 147.867 3.35666C147.844 3.33355 147.818 3.31045 147.792 3.28735C147.736 3.24114 147.684 3.19163 147.628 3.14542C147.593 3.11242 147.55 3.07941 147.511 3.04641C147.456 2.9969 147.397 2.94739 147.338 2.89788H142.863V0.508288C142.86 0.508288 142.853 0.504984 142.85 0.504984C142.723 0.468678 142.592 0.432375 142.465 0.399369C142.289 0.353162 142.106 0.310253 141.927 0.273947C141.748 0.23434 141.565 0.201336 141.382 0.171631V4.39633C141.382 9.81248 139.533 15.0624 136.149 19.2587C132.765 23.4551 128.053 26.3406 122.81 27.4276C122.81 27.4441 122.813 27.4639 122.813 27.4804C122.859 28.124 122.914 28.7643 122.976 29.4079H141.382V58.8752H131.705C131.969 59.3801 132.236 59.8785 132.51 60.3769H141.382V73.3052C141.865 73.8828 142.359 74.4527 142.863 75.0149V60.3769H152.042V57.347H152.038C152.009 57.3569 151.983 57.3668 151.954 57.3767C147.482 58.8983 142.863 55.4657 142.863 50.6898V29.4079H152.042Z" fill="black"/>
<path d="M41.7333 148.968L25.5088 143.232C23.7226 134.279 24.1231 125.021 26.6756 116.26C32.8306 131.254 52.0277 135.447 62.6866 147.583C65.9824 151.394 68.3884 155.906 69.7263 160.786C71.0643 165.666 71.2999 170.788 70.4156 175.773L73.5223 187.699C65.4959 186.768 57.7644 184.087 50.8607 179.841C43.9569 175.594 38.0449 169.884 33.532 163.104C31.0375 159.274 29.0295 155.142 27.5554 150.805C34.5589 150.302 41.7333 148.968 41.7333 148.968Z" fill="#F2F2F2"/>
<path d="M63.6575 58.7393C63.2771 58.7389 62.9124 58.5857 62.6434 58.3136C62.3744 58.0414 62.2231 57.6724 62.2227 57.2874V47.4147C62.2224 47.2239 62.2593 47.0349 62.3313 46.8585C62.4032 46.6821 62.5089 46.5218 62.6421 46.3867C62.7754 46.2517 62.9337 46.1445 63.1079 46.0714C63.2821 45.9983 63.4689 45.9607 63.6575 45.9607C63.8461 45.9607 64.0328 45.9983 64.207 46.0714C64.3812 46.1445 64.5395 46.2517 64.6728 46.3867C64.806 46.5218 64.9117 46.6821 64.9837 46.8585C65.0556 47.0349 65.0925 47.2239 65.0923 47.4147V57.2874C65.0918 57.6724 64.9405 58.0414 64.6715 58.3136C64.4025 58.5857 64.0379 58.7389 63.6575 58.7393Z" fill="#3F3D56"/>
<path d="M113.964 50.8563H102.62C100.173 50.8563 98.1892 52.8637 98.1892 55.3399V55.3399C98.1892 57.816 100.173 59.8234 102.62 59.8234H113.964C116.411 59.8234 118.395 57.816 118.395 55.3399C118.395 52.8637 116.411 50.8563 113.964 50.8563Z" fill="#2C2C2C"/>
<path d="M135.011 68.7905H81.5736C79.1266 68.7905 77.1428 70.7978 77.1428 73.274V73.274C77.1428 75.7502 79.1266 77.7575 81.5736 77.7575H135.011C137.458 77.7575 139.441 75.7502 139.441 73.274C139.441 70.7978 137.458 68.7905 135.011 68.7905Z" fill="white"/>
<path d="M135.011 86.7245H81.5736C79.1266 86.7245 77.1428 88.7319 77.1428 91.2081V91.2081C77.1428 93.6843 79.1266 95.6916 81.5736 95.6916H135.011C137.458 95.6916 139.441 93.6843 139.441 91.2081C139.441 88.7319 137.458 86.7245 135.011 86.7245Z" fill="white"/>
<path d="M63.3706 39.5747C62.9902 39.5742 62.6255 39.4211 62.3565 39.1489C62.0875 38.8767 61.9362 38.5077 61.9358 38.1228V28.2501C61.9364 27.8654 62.0878 27.4967 62.3568 27.2249C62.6258 26.9531 62.9904 26.8004 63.3706 26.8004C63.7508 26.8004 64.1154 26.9531 64.3844 27.2249C64.6534 27.4967 64.8048 27.8654 64.8054 28.2501V38.1228C64.8049 38.5077 64.6536 38.8767 64.3847 39.1489C64.1157 39.4211 63.751 39.5742 63.3706 39.5747Z" fill="#3F3D56"/>
<path d="M98.6006 4.79665C98.601 4.41173 98.7523 4.04271 99.0213 3.77053C99.2903 3.49835 99.655 3.34524 100.035 3.34479H109.792C110.173 3.34479 110.537 3.49775 110.807 3.77003C111.076 4.04231 111.227 4.4116 111.227 4.79665C111.227 5.18171 111.076 5.551 110.807 5.82328C110.537 6.09556 110.173 6.24852 109.792 6.24852H100.035C99.655 6.24807 99.2903 6.09496 99.0213 5.82278C98.7523 5.5506 98.601 5.18158 98.6006 4.79665Z" fill="white"/>
<path d="M63.6575 75.5809C63.2771 75.5805 62.9124 75.4274 62.6434 75.1552C62.3744 74.883 62.2231 74.514 62.2227 74.1291V64.2564C62.2224 64.0655 62.2593 63.8765 62.3313 63.7001C62.4032 63.5237 62.5089 63.3634 62.6421 63.2283C62.7754 63.0933 62.9337 62.9861 63.1079 62.913C63.2821 62.8399 63.4689 62.8023 63.6575 62.8023C63.8461 62.8023 64.0328 62.8399 64.207 62.913C64.3812 62.9861 64.5395 63.0933 64.6728 63.2283C64.806 63.3634 64.9117 63.5237 64.9837 63.7001C65.0556 63.8765 65.0925 64.0655 65.0923 64.2564V74.1291C65.0918 74.514 64.9405 74.883 64.6715 75.1552C64.4025 75.4274 64.0379 75.5805 63.6575 75.5809Z" fill="#3F3D56"/>
<path d="M153.029 54.1274C152.649 54.1269 152.284 53.9738 152.015 53.7016C151.746 53.4295 151.595 53.0604 151.594 52.6755V42.8028C151.594 42.612 151.631 42.4229 151.703 42.2465C151.775 42.0701 151.881 41.9098 152.014 41.7748C152.147 41.6397 152.305 41.5326 152.48 41.4595C152.654 41.3864 152.841 41.3488 153.029 41.3488C153.218 41.3488 153.405 41.3864 153.579 41.4595C153.753 41.5326 153.911 41.6397 154.045 41.7748C154.178 41.9098 154.284 42.0701 154.355 42.2465C154.427 42.4229 154.464 42.612 154.464 42.8028V52.6755C154.464 53.0604 154.312 53.4295 154.043 53.7016C153.774 53.9738 153.41 54.1269 153.029 54.1274Z" fill="#3F3D56"/>
<path d="M115.244 6.24852C116.037 6.24852 116.679 5.5985 116.679 4.79665C116.679 3.99481 116.037 3.34479 115.244 3.34479C114.452 3.34479 113.81 3.99481 113.81 4.79665C113.81 5.5985 114.452 6.24852 115.244 6.24852Z" fill="white"/>
<path d="M193.713 143.86V122.601C193.713 122.171 193.882 121.758 194.183 121.454C194.484 121.15 194.891 120.979 195.316 120.978H211.183C211.608 120.979 212.016 121.15 212.316 121.454C212.617 121.758 212.786 122.171 212.787 122.601V143.86C212.786 144.29 212.617 144.702 212.316 145.007C212.016 145.311 211.608 145.482 211.183 145.483H195.316C194.891 145.482 194.484 145.311 194.183 145.007C193.882 144.702 193.713 144.29 193.713 143.86Z" fill="#E6E6E6"/>
<path d="M194.93 137.439V123.772C194.93 123.369 195.089 122.982 195.37 122.697C195.652 122.413 196.034 122.252 196.432 122.252H210.067C210.466 122.252 210.848 122.413 211.129 122.697C211.411 122.982 211.569 123.369 211.57 123.772V142.689C211.569 143.092 211.411 143.478 211.129 143.763C210.848 144.048 210.466 144.209 210.067 144.209H201.62C199.847 144.207 198.146 143.493 196.892 142.224C195.637 140.955 194.932 139.234 194.93 137.439Z" fill="white"/>
<path d="M197.137 127.585C197.138 127.191 197.293 126.814 197.568 126.535C197.843 126.257 198.216 126.1 198.605 126.1H208.064C208.454 126.1 208.827 126.256 209.102 126.535C209.377 126.813 209.532 127.191 209.532 127.585C209.532 127.979 209.377 128.357 209.102 128.635C208.827 128.914 208.454 129.07 208.064 129.07H198.605C198.216 129.07 197.843 128.913 197.568 128.635C197.293 128.356 197.138 127.979 197.137 127.585Z" fill="#E6E6E6"/>
<path d="M197.137 132.206C197.138 131.812 197.293 131.435 197.568 131.156C197.843 130.878 198.216 130.721 198.605 130.721H208.064C208.454 130.721 208.827 130.877 209.102 131.156C209.377 131.434 209.532 131.812 209.532 132.206C209.532 132.6 209.377 132.978 209.102 133.256C208.827 133.535 208.454 133.691 208.064 133.691H198.605C198.216 133.691 197.843 133.534 197.568 133.256C197.293 132.977 197.138 132.6 197.137 132.206Z" fill="#E6E6E6"/>
<path d="M197.137 136.827C197.138 136.433 197.293 136.055 197.568 135.777C197.843 135.498 198.216 135.342 198.605 135.341H208.064C208.454 135.341 208.827 135.498 209.102 135.776C209.377 136.055 209.532 136.433 209.532 136.827C209.532 137.221 209.377 137.598 209.102 137.877C208.827 138.155 208.454 138.312 208.064 138.312H198.605C198.216 138.311 197.843 138.155 197.568 137.876C197.293 137.598 197.138 137.22 197.137 136.827Z" fill="#E6E6E6"/>
<path d="M194.446 181.336H191.384L189.927 169.387L194.446 169.387L194.446 181.336Z" fill="#FFB6B6"/>
<path d="M195.815 187.219H193.643L193.255 185.143L192.262 187.219H186.5C186.224 187.219 185.955 187.129 185.732 186.964C185.51 186.798 185.346 186.565 185.264 186.298C185.181 186.031 185.186 185.745 185.276 185.481C185.366 185.217 185.537 184.988 185.764 184.83L190.365 181.614V179.516L195.205 179.808L195.815 187.219Z" fill="#2F2E41"/>
<path d="M184.326 174.333L181.67 175.874L174.532 166.24L178.453 163.966L184.326 174.333Z" fill="#FFB6B6"/>
<path d="M188.405 178.747L186.52 179.84L185.164 178.235L185.322 180.535L180.324 183.435C180.084 183.574 179.807 183.632 179.533 183.6C179.258 183.569 179.001 183.449 178.798 183.259C178.596 183.069 178.459 182.818 178.407 182.544C178.355 182.269 178.392 181.985 178.511 181.733L180.922 176.628L179.891 174.807L184.233 172.625L188.405 178.747Z" fill="#2F2E41"/>
<path d="M172.192 97.2322L170.417 108.676L187.271 108.901L185.053 97.9055L172.192 97.2322Z" fill="#FFB6B6"/>
<path d="M170.907 105.882L165.539 120.344L165.235 147.689L165.22 149.122L165.009 154.084L174.468 171.247L180.836 166.956L173.164 152.434V152.392C173.164 149.721 174.42 141.268 176.548 139.686L180.286 132.125L183.275 150.123L190.264 175.392L195.343 175.538L193.2 151.675L193.002 148.551L192.236 146.421L192.114 144.488L192.597 142.139L191.595 126.291C191.595 126.291 192.51 115.707 187.825 109.462L186.685 106.127L170.907 105.882Z" fill="#2F2E41"/>
<path d="M191.916 123.735C191.698 123.495 191.535 123.209 191.437 122.898C191.34 122.587 191.311 122.259 191.353 121.935C191.395 121.612 191.507 121.302 191.68 121.027C191.853 120.751 192.084 120.518 192.356 120.343L190.549 112.628L194.373 114.042L195.503 121.151C195.763 121.633 195.84 122.195 195.719 122.73C195.597 123.265 195.286 123.737 194.844 124.055C194.402 124.374 193.859 124.517 193.32 124.458C192.78 124.399 192.281 124.142 191.916 123.735Z" fill="#FFB8B8"/>
<path d="M182.719 91.4052L184.254 95.399C184.254 95.399 183.596 99.3928 184.692 100.28C185.789 101.168 185.35 101.168 185.35 101.833C185.388 102.311 185.525 102.775 185.751 103.195C185.978 103.616 186.29 103.983 186.666 104.274C187.543 104.94 191.49 118.474 191.49 118.474H195.437C195.309 117.443 195.309 116.399 195.437 115.368C195.656 113.815 194.779 109.821 194.34 109.155C193.902 108.49 194.34 107.602 194.34 106.271C194.34 104.94 193.463 104.274 193.463 102.055C193.463 99.8366 190.832 82.5302 191.051 80.5333C191.27 78.5364 188.858 76.7614 188.858 76.7614H186.666L182.719 91.4052Z" fill="#3F3D56"/>
<path d="M150.551 80.0887C150.591 80.4123 150.702 80.723 150.873 80.9989C151.045 81.2748 151.275 81.5092 151.546 81.6856C151.817 81.862 152.123 81.9761 152.443 82.0199C152.762 82.0637 153.087 82.036 153.395 81.9389L158.051 88.3163L159.453 84.4481L154.817 78.9851C154.621 78.4728 154.247 78.0508 153.764 77.7992C153.282 77.5475 152.725 77.4837 152.199 77.6197C151.674 77.7557 151.215 78.0822 150.912 78.5373C150.608 78.9923 150.48 79.5443 150.551 80.0887Z" fill="#FFB8B8"/>
<path d="M169.468 101.515C169.453 101.488 169.446 101.457 169.447 101.426C169.448 101.395 169.457 101.365 169.474 101.339C169.793 100.77 171.294 86.3041 172.225 76.7198L172.237 76.5988L172.357 76.6023C172.382 76.6029 174.81 76.6499 176.951 74.2353C177.231 73.9194 177.264 73.1922 177.3 72.4221C177.344 71.484 177.389 70.5139 177.884 70.0131L177.905 69.9915L177.934 69.9815C180.018 69.2793 183.536 69.7335 184.582 69.9782L184.627 69.9889L184.655 70.0265C185.088 70.6039 185.064 71.5277 185.041 72.421C185.02 73.2248 185.001 73.9838 185.353 74.2127C185.625 74.39 185.887 74.5595 186.138 74.7211C189.235 76.7198 190.789 77.7233 191.928 80.9881C192.345 82.1836 192.478 83.1865 192.323 83.9689C191.655 87.3503 192.772 104.273 192.938 104.943C193.05 105.259 193.212 105.554 193.417 105.818C193.694 106.221 193.933 106.569 193.795 106.836C193.701 107.017 193.459 107.102 193.032 107.102C191.423 107.102 169.937 102.401 169.468 101.515Z" fill="#3F3D56"/>
<path d="M159.732 91.6226L159.696 91.5995L159.293 90.5503L157.395 90.0612L153.979 83.1473L156.696 80.6733L160.352 82.8314L161.684 84.633L163.334 85.291L167.203 88.1787L170.693 78.4668C170.877 77.955 171.166 77.4886 171.542 77.0986C171.917 76.7085 172.37 76.4037 172.871 76.2043C173.372 76.0049 173.909 75.9155 174.446 75.9421C174.984 75.9686 175.51 76.1104 175.989 76.3582L179.762 78.3088L179.794 78.333C179.854 78.3937 181.264 79.8586 181.025 82.5366C180.8 85.0466 179.002 89.1117 171.704 94.2305L167.519 96.6128L159.732 91.6226Z" fill="#3F3D56"/>
<path d="M175.01 65.5403C175.787 66.9776 177.024 68.1044 178.518 68.7351C180.012 69.3658 181.674 69.4627 183.23 69.01C184.786 68.5572 186.143 67.5818 187.078 66.2443C188.013 64.9068 188.47 63.287 188.374 61.6516C188.277 60.0163 187.633 58.4629 186.548 57.2473C185.463 56.0317 184 55.2265 182.402 54.9641C180.804 54.7017 179.165 54.9978 177.756 55.8038C176.346 56.6097 175.25 57.8774 174.648 59.398C174.615 59.4805 174.586 59.563 174.556 59.6488C174.216 60.6074 174.08 61.6282 174.158 62.6438C174.236 63.6594 174.527 64.6466 175.01 65.5403Z" fill="#FFB6B6"/>
<path d="M173.986 59.6488C174.292 58.7808 174.159 59.2329 174.468 58.3682C174.369 58.7942 174.399 59.2409 174.557 59.6488H183.04V54.6584C180.555 53.6616 178.125 52.8134 176.657 54.6584C175.349 54.6584 174.095 55.1842 173.17 56.1201C172.245 57.056 171.725 58.3253 171.725 59.6488H173.986Z" fill="#2F2E41"/>
<path d="M176.993 73.521C176.999 73.4285 177.009 73.3328 177.022 73.2404C177.136 72.5624 177.321 71.8986 177.573 71.2601C177.818 70.5637 178.066 69.864 178.314 69.1675C177.995 70.4317 178.092 71.7667 178.591 72.9698C180.023 71.841 179.119 69.26 180.992 69.26C185.493 69.26 190.125 65.5666 190.125 61.0086C190.125 56.4538 188.194 53.0477 183.692 53.0477C179.188 53.0477 175.535 55.1336 175.447 59.6884C180.992 61.0086 175.946 73.0589 176.993 73.521Z" fill="#2F2E41"/>
<path d="M189.562 60.3105C192.445 60.3105 194.781 57.9461 194.781 55.0296C194.781 52.113 192.445 49.7487 189.562 49.7487C186.68 49.7487 184.344 52.113 184.344 55.0296C184.344 57.9461 186.68 60.3105 189.562 60.3105Z" fill="#2F2E41"/>
<path d="M187.685 50.9023L188.311 50.0904C189.779 52.4635 192.767 53.3613 194.708 55.3581C197.891 58.6355 197.542 63.9626 196.397 68.4084C195.249 72.8543 193.514 77.4585 194.649 81.911C195.406 84.8815 197.372 87.3833 199.473 89.598C201.453 91.6905 203.801 93.6906 206.424 94.7039C206.596 93.9064 206.831 93.124 207.125 92.3638C207.474 91.3737 207.823 90.3802 208.175 89.3933C207.723 91.1877 207.862 93.0823 208.57 94.7897C208.642 94.968 208.723 95.1462 208.808 95.3211C209.311 95.3873 209.818 95.4105 210.325 95.3904C211.612 95.3288 212.869 94.9722 214.001 94.3474C214.173 93.6748 214.382 93.0126 214.627 92.3638C214.976 91.3737 215.325 90.3802 215.677 89.3933C215.355 90.6569 215.328 91.9791 215.599 93.255C217.284 91.859 218.457 89.9306 218.929 87.7794C219.771 83.7164 217.925 79.297 214.64 76.8116C212.24 74.9963 209.268 74.1745 206.561 72.8675C203.854 71.5638 201.198 69.4646 200.615 66.4908C199.744 62.0417 203.779 58.1173 204.336 53.6187C204.871 49.2818 201.57 44.8227 197.307 44.1263C193.044 43.4332 188.523 46.6149 187.685 50.9023Z" fill="#2F2E41"/>
<path d="M137.461 177.509C136.224 178.588 134.923 179.59 133.566 180.509C132.79 181.037 131.994 181.536 131.185 182.008C126.481 184.757 121.285 186.535 115.897 187.239H77.2911C74.2189 187.242 71.2499 186.117 68.9345 184.074C67.7883 183.064 66.8276 181.858 66.0968 180.509C65.0757 178.618 64.5417 176.496 64.5442 174.341V103.168C66.0185 103.273 67.482 103.422 68.9345 103.613C69.4303 103.676 69.9228 103.745 70.4153 103.821C80.4976 105.327 90.1924 108.811 98.9556 114.076C99.4514 114.373 99.9472 114.677 100.436 114.99C104.823 117.755 108.931 120.95 112.701 124.529C113.219 125.021 113.731 125.521 114.237 126.031C122.539 134.334 128.917 144.398 132.91 155.498C133.09 155.996 133.264 156.498 133.432 157.003C135.663 163.629 137.017 170.524 137.461 177.509Z" fill="#2C2C2C"/>
<path opacity="0.2" d="M100.436 180.509C100.436 177.422 101.037 174.365 102.205 171.513C103.373 168.661 105.084 166.069 107.242 163.887C109.399 161.704 111.96 159.972 114.779 158.791C117.598 157.61 120.619 157.002 123.67 157.003H133.432C133.263 156.498 133.089 155.996 132.91 155.498H100.436V126.03H114.237C113.731 125.522 113.219 125.022 112.701 124.529H100.436V114.99C99.9472 114.677 99.4514 114.373 98.9556 114.076V124.529H70.4153V103.821C69.9228 103.745 69.4303 103.676 68.9345 103.613V124.529H64.5442V126.03H68.9345V155.498H64.5442V157.003H68.9345V180.509H66.0968C66.3793 181.03 66.6964 181.531 67.0459 182.008H68.9345V184.074C69.4004 184.485 69.8953 184.861 70.4153 185.199V182.008H98.9556V187.239H100.436V182.008H131.185C131.994 181.536 132.79 181.037 133.566 180.509L100.436 180.509ZM98.9556 180.509H70.4153V157.003H98.9556V180.509ZM98.9556 155.498H70.4153V154.914C70.4152 147.254 73.422 139.908 78.7742 134.491C84.1265 129.075 91.3859 126.031 98.9556 126.03V155.498Z" fill="black"/>
<path d="M93.9032 140.787C93.9035 142.031 93.4955 143.24 92.7433 144.224C91.991 145.207 90.9371 145.91 89.7471 146.222C88.5571 146.534 87.2985 146.437 86.1689 145.946C85.0393 145.456 84.1028 144.599 83.5065 143.512C82.9101 142.424 82.6878 141.167 82.8743 139.937C83.0608 138.708 83.6457 137.576 84.537 136.719C85.4283 135.863 86.5756 135.33 87.7986 135.205C89.0216 135.08 90.251 135.369 91.2938 136.028C90.2092 137.311 89.3098 138.744 88.6224 140.282C89.8446 139.045 91.408 138.211 93.1073 137.889C93.6301 138.763 93.9054 139.766 93.9032 140.787Z" fill="#2F2E41"/>
<path d="M112.815 172.809C111.945 171.93 111.389 170.783 111.234 169.55C111.078 168.316 111.332 167.065 111.956 165.993C112.579 164.921 113.537 164.089 114.678 163.627C115.82 163.166 117.081 163.101 118.262 163.444C119.444 163.786 120.48 164.516 121.207 165.519C121.934 166.522 122.312 167.741 122.28 168.984C122.249 170.228 121.81 171.425 121.032 172.389C120.255 173.352 119.183 174.027 117.986 174.308C117.856 172.624 117.491 170.968 116.902 169.388C116.902 171.137 116.379 172.846 115.402 174.289C114.422 174.045 113.527 173.533 112.815 172.809Z" fill="#2F2E41"/>
<path d="M145.692 17.5597H70.8928C70.8062 17.5578 70.7238 17.5216 70.6633 17.459C70.6027 17.3963 70.5688 17.3122 70.5688 17.2246C70.5688 17.137 70.6027 17.0528 70.6633 16.9902C70.7238 16.9276 70.8062 16.8914 70.8928 16.8895H145.692C145.779 16.8914 145.861 16.9276 145.922 16.9902C145.982 17.0528 146.016 17.137 146.016 17.2246C146.016 17.3122 145.982 17.3963 145.922 17.459C145.861 17.5216 145.779 17.5578 145.692 17.5597Z" fill="white"/>
<path d="M76.5617 15.1784C77.6337 15.1784 78.5026 14.2795 78.5026 13.1707C78.5026 12.0619 77.6337 11.163 76.5617 11.163C75.4898 11.163 74.6208 12.0619 74.6208 13.1707C74.6208 14.2795 75.4898 15.1784 76.5617 15.1784Z" fill="white"/>
<path d="M83.2666 15.1784C84.3385 15.1784 85.2074 14.2795 85.2074 13.1707C85.2074 12.0619 84.3385 11.163 83.2666 11.163C82.1946 11.163 81.3257 12.0619 81.3257 13.1707C81.3257 14.2795 82.1946 15.1784 83.2666 15.1784Z" fill="white"/>
<path d="M89.9714 15.1784C91.0433 15.1784 91.9123 14.2795 91.9123 13.1707C91.9123 12.0619 91.0433 11.163 89.9714 11.163C88.8995 11.163 88.0305 12.0619 88.0305 13.1707C88.0305 14.2795 88.8995 15.1784 89.9714 15.1784Z" fill="white"/>
<path d="M141.655 11.6606H136.893C136.798 11.6625 136.708 11.7018 136.642 11.77C136.576 11.8382 136.539 11.93 136.539 12.0255C136.539 12.121 136.576 12.2128 136.642 12.281C136.708 12.3492 136.798 12.3885 136.893 12.3904H141.655C141.75 12.3885 141.84 12.3492 141.906 12.281C141.972 12.2128 142.009 12.121 142.009 12.0255C142.009 11.93 141.972 11.8382 141.906 11.77C141.84 11.7018 141.75 11.6625 141.655 11.6606Z" fill="white"/>
<path d="M141.655 13.0304H136.893C136.798 13.0323 136.708 13.0716 136.642 13.1398C136.576 13.208 136.539 13.2998 136.539 13.3953C136.539 13.4909 136.576 13.5826 136.642 13.6508C136.708 13.719 136.798 13.7583 136.893 13.7602H141.655C141.75 13.7583 141.84 13.719 141.906 13.6508C141.972 13.5826 142.009 13.4909 142.009 13.3953C142.009 13.2998 141.972 13.208 141.906 13.1398C141.84 13.0716 141.75 13.0323 141.655 13.0304Z" fill="white"/>
<path d="M141.655 14.3984H136.893C136.798 14.4003 136.708 14.4396 136.642 14.5078C136.576 14.576 136.539 14.6678 136.539 14.7633C136.539 14.8588 136.576 14.9506 136.642 15.0188C136.708 15.087 136.798 15.1263 136.893 15.1282H141.655C141.75 15.1263 141.84 15.087 141.906 15.0188C141.972 14.9506 142.009 14.8588 142.009 14.7633C142.009 14.6678 141.972 14.576 141.906 14.5078C141.84 14.4396 141.75 14.4003 141.655 14.3984Z" fill="white"/>
<path d="M244.612 187.899L0.388469 188C0.285661 188 0.187168 187.958 0.114578 187.884C0.0419868 187.811 0.0012207 187.711 0.0012207 187.607C0.0012207 187.503 0.0419868 187.403 0.114578 187.329C0.187168 187.256 0.285661 187.214 0.388469 187.214L244.612 187.113C244.715 187.113 244.813 187.154 244.886 187.228C244.958 187.302 244.999 187.402 244.999 187.506C244.999 187.61 244.958 187.709 244.886 187.783C244.813 187.857 244.715 187.898 244.612 187.899Z" fill="#CACACA"/>
</svg>
