<svg width="390" height="70" viewBox="0 0 390 70" fill="none" xmlns="http://www.w3.org/2000/svg">
<g clip-path="url(#clip0_2_2)">
<path fill-rule="evenodd" clip-rule="evenodd" d="M0 30.9204V133H-64.3333H-89V-45L-64.3333 -21.2481L-63.1517 -20.1206C-48.5481 -6.18311 -25.9414 15.3923 0 30.9204ZM390 53.7581C378.557 58.756 366.779 61.8 355 61.8C329.633 61.8 304.266 47.6813 278.899 33.5626C254.933 20.2233 230.966 6.88409 207 5.45184C181.585 3.81848 156.17 15.7225 130.755 27.6266C106.837 38.8297 82.9184 50.0328 59 49.9518C38.766 50.0203 18.5321 42.0134 0 30.9204V-712H390V53.7581ZM390 133H478.333H503V-45L478.333 -18.3C459.556 2.02527 426.484 37.823 390 53.7581V133Z" fill="#56BB76"/>
</g>
<defs>
<clipPath id="clip0_2_2">
<rect width="390" height="70" fill="white"/>
</clipPath>
</defs>
</svg>
