<svg width="24" height="24" viewBox="0 0 24 24" fill="none" xmlns="http://www.w3.org/2000/svg">
<path d="M12.5403 21.5788H11.72C9.60752 21.5788 7.88912 19.8604 7.88912 17.7479V17.1104C7.88912 16.389 7.58336 15.6786 7.028 15.1098C5.62448 13.6717 4.90736 11.7714 5.0096 9.75972C5.19488 6.11556 8.19728 3.14868 11.8448 3.0066C13.8061 2.92308 15.6608 3.63492 17.0715 4.99092C18.4827 6.34788 19.2598 8.17332 19.2598 10.1303C19.2598 12.0056 18.537 13.7768 17.2242 15.117C16.6741 15.6791 16.3712 16.3861 16.3712 17.1085V17.7474C16.3717 19.8599 14.6533 21.5788 12.5403 21.5788ZM12.1323 4.07796C12.0507 4.07796 11.9691 4.0794 11.8875 4.08276C8.79152 4.20372 6.2432 6.72084 6.08624 9.81396C5.99936 11.5223 6.608 13.136 7.79936 14.3567C8.552 15.1276 8.96672 16.1053 8.96672 17.11V17.7474C8.96672 19.2656 10.2018 20.5007 11.72 20.5007H12.5403C14.0586 20.5007 15.2941 19.2656 15.2941 17.7474V17.1085C15.2941 16.1024 15.7064 15.1276 16.4547 14.3629C17.5688 13.2253 18.1822 11.722 18.1822 10.1303C18.1822 8.469 17.5227 6.91956 16.3246 5.76756C15.187 4.67316 13.7062 4.07796 12.1323 4.07796Z" fill="#EEEEEE"/>
<path d="M8.98257 19.8724C8.73729 19.8724 8.51601 19.7044 8.45841 19.4553C8.39121 19.1653 8.57169 18.8759 8.86161 18.8087L15.7112 17.2228C15.9992 17.1556 16.2906 17.3361 16.3578 17.626C16.425 17.9159 16.2445 18.2053 15.9546 18.2725L9.10497 19.8585C9.06369 19.8681 9.02289 19.8724 8.98257 19.8724Z" fill="#EEEEEE"/>
<path d="M8.47473 17.7848C8.22753 17.7848 8.00529 17.614 7.94961 17.3629C7.88481 17.0725 8.06817 16.7845 8.35857 16.7202L11.9134 15.9301C12.2034 15.8658 12.4918 16.0487 12.5562 16.3391C12.621 16.6295 12.4376 16.9175 12.1472 16.9818L8.59233 17.7719C8.55297 17.7805 8.51361 17.7848 8.47473 17.7848Z" fill="#EEEEEE"/>
</svg>
