<svg width="27" height="24" viewBox="0 0 27 24" fill="none" xmlns="http://www.w3.org/2000/svg">
<path d="M22.0628 5.07898H4.83472C4.15512 5.07898 3.60406 5.6017 3.60406 6.24634V20.2532C3.60406 20.8979 4.15512 21.4206 4.83472 21.4206H22.0623C22.7419 21.4206 23.293 20.8979 23.293 20.2532V6.24634C23.293 5.6017 22.7424 5.07898 22.0628 5.07898ZM22.4727 20.2537C22.4727 20.4687 22.289 20.643 22.0623 20.643H4.83472C4.60802 20.643 4.42433 20.4687 4.42433 20.2537V6.24634C4.42433 6.0313 4.60802 5.85706 4.83472 5.85706H22.0623C22.289 5.85706 22.4727 6.0313 22.4727 6.24634V20.2537Z" fill="#EEEEEE"/>
<mask id="path-2-inside-1_1605_1501" fill="white">
<rect x="17.6655" y="16" width="3.68976" height="3.5" rx="1"/>
</mask>
<rect x="17.6655" y="16" width="3.68976" height="3.5" rx="1" fill="#EEEEEE" stroke="#EEEEEE" stroke-width="3.5" mask="url(#path-2-inside-1_1605_1501)"/>
<path d="M3.69724 8.25C3.69724 6.59315 5.04038 5.25 6.69724 5.25H20.2002C21.8571 5.25 23.2002 6.59315 23.2002 8.25V9.25H3.69724V8.25Z" fill="#EEEEEE"/>
<path d="M5.54208 3.75C5.54208 3.19772 5.9898 2.75 6.54208 2.75H6.65052C7.2028 2.75 7.65052 3.19772 7.65052 3.75V5.5H5.54208V3.75Z" fill="#EEEEEE"/>
<path d="M19.2468 3.75C19.2468 3.19772 19.6945 2.75 20.2468 2.75H20.3553C20.9075 2.75 21.3553 3.19772 21.3553 3.75V5.5H19.2468V3.75Z" fill="#EEEEEE"/>
</svg>
