<svg width="329" height="188" viewBox="0 0 329 188" fill="none" xmlns="http://www.w3.org/2000/svg">
<g clip-path="url(#clip0_491_371)">
<path d="M303.137 187.632C307.951 187.632 311.853 186.972 311.853 186.159C311.853 185.345 307.951 184.686 303.137 184.686C298.324 184.686 294.422 185.345 294.422 186.159C294.422 186.972 298.324 187.632 303.137 187.632Z" fill="#F2F2F2"/>
<path d="M313.305 45.4809H312.579V60.9481H313.305V45.4809Z" fill="#F2F2F2"/>
<path d="M305.316 35.5377H300.958V188H305.316V35.5377Z" fill="#F2F2F2"/>
<path d="M323.087 47.5064H283.187C282.75 47.5064 282.317 47.412 281.918 47.2295C281.519 47.047 281.163 46.7805 280.873 46.4478C280.584 46.115 280.367 45.7236 280.238 45.2995C280.109 44.8754 280.07 44.4283 280.125 43.9879L285.209 2.74204C285.303 1.9854 285.666 1.28958 286.23 0.784842C286.793 0.280108 287.519 0.00107888 288.271 0H318.003C318.755 0.00107877 319.481 0.280108 320.045 0.784842C320.609 1.28958 320.972 1.9854 321.066 2.74204L326.15 43.9879C326.204 44.4283 326.166 44.8754 326.036 45.2995C325.907 45.7236 325.691 46.115 325.401 46.4478C325.111 46.7805 324.755 47.047 324.356 47.2295C323.957 47.412 323.525 47.5064 323.087 47.5064Z" fill="#F2F2F2"/>
<path d="M312.942 63.526C314.346 63.526 315.484 62.3718 315.484 60.9481C315.484 59.5244 314.346 58.3702 312.942 58.3702C311.538 58.3702 310.4 59.5244 310.4 60.9481C310.4 62.3718 311.538 63.526 312.942 63.526Z" fill="#F2F2F2"/>
<path d="M45.5952 147.072C43.7606 153.527 38.4038 158.045 32.816 161.883C32.0358 162.419 31.2553 162.943 30.4746 163.454C30.4693 163.456 30.4639 163.461 30.4585 163.464C30.4209 163.488 30.3833 163.513 30.3483 163.537C30.1872 163.643 30.026 163.748 29.8662 163.852L29.954 163.892C29.954 163.892 30.0402 163.939 29.9459 163.9C29.9178 163.888 29.8884 163.877 29.8604 163.865C26.6142 162.537 23.3104 161.112 20.8227 158.625C18.2421 156.042 16.734 151.991 18.1314 148.597C18.315 148.153 18.547 147.731 18.8231 147.338C18.9364 147.174 19.0585 147.017 19.1856 146.862C19.9564 145.908 20.9639 145.179 22.1044 144.751C23.2449 144.323 24.4773 144.21 25.675 144.425C26.8726 144.64 27.9921 145.174 28.9185 145.974C29.8449 146.773 30.5447 147.808 30.9459 148.972C31.3565 145.096 28.2047 141.849 25.1716 139.453C22.1372 137.058 18.6892 134.451 18.1026 130.596C17.7749 128.451 18.5104 126.373 19.85 124.704C19.8915 124.654 19.9329 124.603 19.9757 124.554C21.6064 122.61 23.9001 121.362 26.3985 121.059C31.0514 120.569 35.571 123.066 38.9512 126.347C44.3917 131.626 47.6807 139.734 45.5952 147.072Z" fill="#F2F2F2"/>
<path d="M36.8495 138.63C37.7425 140.039 38.4281 141.573 38.8847 143.182C39.2708 144.621 39.4427 146.11 39.3945 147.6C39.27 150.667 38.4211 153.658 36.9193 156.323C35.7881 158.344 34.4094 160.212 32.8161 161.883C32.0359 162.419 31.2555 162.943 30.4748 163.454C30.4695 163.456 30.464 163.461 30.4587 163.464C30.4211 163.488 30.3835 163.513 30.3485 163.537C30.1874 163.643 30.0262 163.748 29.8664 163.852C29.8664 163.852 30.0403 163.939 29.946 163.9C29.918 163.888 29.8886 163.877 29.8606 163.865C30.1515 161.446 29.8665 158.992 29.0294 156.707C28.1923 154.423 26.8275 152.375 25.0494 150.736C23.267 149.122 21.1336 147.958 18.8232 147.338C18.9366 147.174 19.0587 147.016 19.1858 146.862C20.0781 147.116 20.9465 147.449 21.781 147.858C24.7638 149.311 27.2062 151.699 28.7466 154.668C30.1288 157.365 30.7238 160.406 30.4615 163.434C30.5948 163.311 30.7284 163.186 30.8579 163.062C33.3246 160.73 35.5156 158.052 36.9983 154.963C38.2847 152.347 38.917 149.449 38.8394 146.527C38.7184 143.34 37.4664 140.388 35.6536 137.819C33.6669 135.077 31.3198 132.624 28.6776 130.528C26.0149 128.365 23.1012 126.541 20.0015 125.096C19.9316 125.062 19.8769 125.003 19.8488 124.931C19.8206 124.858 19.8211 124.777 19.8502 124.704C19.8709 124.639 19.916 124.585 19.9758 124.554C20.0066 124.54 20.04 124.534 20.0735 124.535C20.1069 124.537 20.1397 124.546 20.1692 124.562C20.5519 124.741 20.9319 124.922 21.3089 125.111C24.449 126.685 27.3842 128.648 30.0469 130.956C32.6189 133.18 35.0403 135.721 36.8495 138.63Z" fill="white"/>
<path d="M19.11 163.326H39.2144C39.435 163.326 39.653 163.374 39.854 163.466C40.055 163.558 40.2345 163.692 40.3804 163.86C40.5264 164.027 40.6355 164.224 40.7005 164.438C40.7656 164.652 40.7851 164.877 40.7577 165.099L38.196 185.882C38.1485 186.263 37.9656 186.614 37.6815 186.868C37.3974 187.122 37.0317 187.263 36.6528 187.263H21.6716C21.2927 187.263 20.9269 187.122 20.6429 186.868C20.3588 186.614 20.1759 186.263 20.1284 185.882L17.5667 165.099C17.5393 164.877 17.5588 164.652 17.6239 164.438C17.6889 164.224 17.798 164.027 17.944 163.86C18.0899 163.692 18.2694 163.558 18.4704 163.466C18.6714 163.374 18.8894 163.326 19.11 163.326Z" fill="#F2F2F2"/>
<path d="M84.6606 187.423C86.0502 187.423 87.1767 186.281 87.1767 184.872C87.1767 183.462 86.0502 182.32 84.6606 182.32C83.271 182.32 82.1445 183.462 82.1445 184.872C82.1445 186.281 83.271 187.423 84.6606 187.423Z" fill="#CCCCCC"/>
<path d="M243.591 187.423C244.981 187.423 246.108 186.281 246.108 184.872C246.108 183.462 244.981 182.32 243.591 182.32C242.202 182.32 241.075 183.462 241.075 184.872C241.075 186.281 242.202 187.423 243.591 187.423Z" fill="#CCCCCC"/>
<path d="M130.788 149.362H91.3699C89.5354 149.36 87.7767 148.62 86.4796 147.304C85.1824 145.989 84.4528 144.205 84.4507 142.345V115.127C84.4528 113.267 85.1824 111.484 86.4796 110.168C87.7767 108.853 89.5354 108.113 91.3699 108.111H130.788C132.623 108.113 134.381 108.853 135.678 110.168C136.976 111.484 137.705 113.267 137.707 115.127V142.345C137.705 144.205 136.976 145.989 135.678 147.304C134.381 148.62 132.623 149.36 130.788 149.362Z" fill="#E6E6E6"/>
<path d="M183.835 149.574H144.417C142.582 149.572 140.824 148.832 139.526 147.517C138.229 146.201 137.5 144.418 137.498 142.557V115.34C137.5 113.48 138.229 111.696 139.526 110.381C140.824 109.065 142.582 108.325 144.417 108.323H183.835C185.669 108.325 187.428 109.065 188.725 110.381C190.022 111.696 190.752 113.48 190.754 115.34V142.557C190.752 144.418 190.022 146.201 188.725 147.517C187.428 148.832 185.669 149.572 183.835 149.574Z" fill="#E6E6E6"/>
<path d="M236.882 149.787H197.464C195.629 149.785 193.87 149.045 192.573 147.729C191.276 146.414 190.547 144.63 190.544 142.77V115.553C190.547 113.692 191.276 111.909 192.573 110.593C193.87 109.278 195.629 108.538 197.464 108.536H236.882C238.716 108.538 240.475 109.278 241.772 110.593C243.069 111.909 243.799 113.692 243.801 115.553V142.77C243.799 144.63 243.069 146.414 241.772 147.729C240.475 149.045 238.716 149.785 236.882 149.787Z" fill="#E6E6E6"/>
<path d="M251.978 147.873H78.3704V184.659H251.978V147.873Z" fill="#E6E6E6"/>
<path d="M84.6605 184.872H77.1123C73.297 184.872 70.1931 181.298 70.1931 176.904V138.517H84.6605V184.872Z" fill="#E6E6E6"/>
<path d="M251.139 184.872H243.591V132.564H258.059V175.881C258.059 180.839 254.955 184.872 251.139 184.872Z" fill="#E6E6E6"/>
<path d="M137.917 155.528H84.6604V144.046C102.413 133.719 120.165 133.719 137.917 144.046V155.528Z" fill="#CCCCCC"/>
<path d="M190.964 155.741H137.707V144.258C155.46 133.931 173.212 133.931 190.964 144.258V155.741Z" fill="#CCCCCC"/>
<path d="M244.011 155.953H190.754V144.471C208.506 134.144 226.259 134.144 244.011 144.471V155.953Z" fill="#CCCCCC"/>
<path d="M74.3865 148.299C81.2186 148.299 86.7571 142.682 86.7571 135.753C86.7571 128.824 81.2186 123.208 74.3865 123.208C67.5544 123.208 62.0159 128.824 62.0159 135.753C62.0159 142.682 67.5544 148.299 74.3865 148.299Z" fill="#CCCCCC"/>
<path d="M255.543 147.873C262.375 147.873 267.913 142.256 267.913 135.328C267.913 128.399 262.375 122.782 255.543 122.782C248.711 122.782 243.172 128.399 243.172 135.328C243.172 142.256 248.711 147.873 255.543 147.873Z" fill="#CCCCCC"/>
<path d="M219.102 110.75C219.131 110.952 219.144 111.156 219.141 111.359L233.969 121.724L237.924 119.825L241.529 125.503L234.851 129.554C234.311 129.881 233.681 130.022 233.056 129.955C232.431 129.889 231.844 129.619 231.383 129.185L216.366 115.05C215.621 115.263 214.83 115.24 214.097 114.986C213.365 114.731 212.727 114.256 212.267 113.625C211.807 112.993 211.548 112.235 211.523 111.45C211.499 110.666 211.711 109.892 212.131 109.232C212.55 108.573 213.158 108.058 213.873 107.758C214.588 107.457 215.377 107.384 216.133 107.549C216.89 107.714 217.58 108.108 218.11 108.68C218.64 109.252 218.986 109.974 219.102 110.75V110.75Z" fill="#FFB8B8"/>
<path d="M234.255 120.832C234.32 120.603 234.434 120.391 234.587 120.211C234.74 120.031 234.93 119.886 235.144 119.787L242.6 116.322C243.607 115.657 244.832 115.425 246.008 115.675C247.184 115.925 248.214 116.638 248.872 117.657C249.53 118.677 249.763 119.919 249.52 121.112C249.276 122.305 248.576 123.352 247.573 124.022L241.409 129.55C241.233 129.707 241.026 129.825 240.801 129.894C240.576 129.963 240.34 129.982 240.107 129.95C239.874 129.918 239.651 129.836 239.453 129.708C239.254 129.581 239.085 129.412 238.957 129.212L234.455 122.197C234.327 121.998 234.243 121.772 234.208 121.537C234.174 121.301 234.19 121.061 234.255 120.832Z" fill="#2C2C2C"/>
<path d="M218.915 111.426L218.841 111.431L218.637 108.579C218.572 107.667 217.991 106.967 217.338 107.015L213.015 107.332C212.363 107.38 211.162 108.211 211.227 109.123L211.28 109.857L212.344 124.771C212.409 125.682 213.715 126.33 214.367 126.282L218.69 125.964C219.343 125.917 219.819 125.139 219.754 124.227L218.986 113.462L219.06 113.456L218.915 111.426Z" fill="#3F3D56"/>
<path d="M218.387 108.609L219.502 124.234C219.55 124.915 219.195 125.496 218.708 125.531L214.363 125.85C213.876 125.886 213.442 125.363 213.393 124.682L212.278 109.057C212.23 108.376 212.585 107.795 213.072 107.76L213.6 107.721C213.563 107.86 213.571 108.007 213.622 108.141C213.673 108.276 213.765 108.39 213.884 108.468C213.934 108.492 213.99 108.503 214.045 108.499L216.522 108.318C216.754 108.3 216.922 108.024 216.899 107.7C216.894 107.626 216.878 107.552 216.853 107.482L217.417 107.441C217.904 107.405 218.338 107.928 218.387 108.609Z" fill="white"/>
<path d="M157.441 144.688L156.008 140.414L171.584 132.774L173.699 139.084L157.441 144.688Z" fill="#FFB8B8"/>
<path d="M153.721 147.187L149.101 133.404L149.272 133.345C149.967 133.105 150.702 133.007 151.434 133.055C152.166 133.103 152.882 133.298 153.54 133.626C154.198 133.955 154.786 134.412 155.27 134.971C155.754 135.531 156.125 136.181 156.361 136.886L156.361 136.886L159.183 145.304L153.721 147.187Z" fill="#2F2E41"/>
<path d="M219.262 147.739C215.921 147.929 212.59 147.222 209.605 145.689L191.289 133.052L169.902 141.084C169.334 141.28 168.714 141.25 168.168 141C167.621 140.75 167.188 140.3 166.956 139.739L165.908 137.182C165.669 136.607 165.662 135.959 165.889 135.379C166.115 134.799 166.558 134.332 167.12 134.079L187.553 124.774C190.006 123.661 192.758 123.419 195.363 124.089L223.728 131.419L231.226 140.449L231.143 140.566C227.462 145.716 223.096 147.458 219.262 147.739Z" fill="#2F2E41"/>
<path d="M242.428 110.006C247.354 110.006 251.347 105.957 251.347 100.961C251.347 95.9657 247.354 91.9161 242.428 91.9161C237.502 91.9161 233.509 95.9657 233.509 100.961C233.509 105.957 237.502 110.006 242.428 110.006Z" fill="#FFB8B8"/>
<path d="M233.272 144.475L218.918 133.642L228.707 126.586C228.427 125.672 227.185 120.447 233.979 116.886C236.129 115.758 237.678 114.788 238.583 114.002C239.868 112.878 241.513 112.269 243.209 112.291C244.278 112.308 245.329 112.577 246.277 113.077C247.226 113.577 248.047 114.294 248.675 115.172C249.303 116.049 249.722 117.063 249.897 118.133C250.072 119.203 249.999 120.299 249.684 121.335C248.267 126.005 246.011 132.193 243.306 135.152C240.245 138.495 236.926 141.585 233.381 144.393L233.272 144.475Z" fill="#2C2C2C"/>
<path d="M159.717 148.476L158.284 144.201L173.86 136.562L175.975 142.871L159.717 148.476Z" fill="#FFB8B8"/>
<path d="M155.997 150.975L151.376 137.192L151.548 137.133C152.243 136.893 152.977 136.795 153.71 136.843C154.442 136.891 155.157 137.085 155.816 137.414C156.474 137.743 157.062 138.2 157.546 138.759C158.03 139.318 158.401 139.969 158.637 140.673L158.637 140.674L161.459 149.092L155.997 150.975Z" fill="#2F2E41"/>
<path d="M221.538 151.527C218.197 151.717 214.866 151.01 211.881 149.476L193.565 136.84L172.178 144.872C171.61 145.067 170.991 145.037 170.444 144.788C169.897 144.538 169.464 144.087 169.232 143.527L168.184 140.97C167.945 140.395 167.938 139.747 168.165 139.167C168.392 138.587 168.834 138.12 169.396 137.867L189.829 128.562C192.282 127.449 195.034 127.207 197.639 127.877L226.004 135.207L233.502 144.237L233.419 144.354C229.738 149.503 225.372 151.245 221.538 151.527Z" fill="#2F2E41"/>
<path d="M217.421 121.601C217.532 121.77 217.63 121.949 217.713 122.134L235.489 125.062L238.261 121.63L243.916 125.195L239.591 131.755C239.242 132.285 238.732 132.686 238.139 132.898C237.546 133.109 236.902 133.119 236.302 132.928L216.763 126.674C216.18 127.19 215.455 127.513 214.686 127.601C213.917 127.689 213.139 127.537 212.457 127.166C211.775 126.795 211.221 126.222 210.867 125.524C210.514 124.825 210.379 124.034 210.48 123.256C210.581 122.478 210.913 121.749 211.432 121.167C211.951 120.584 212.633 120.176 213.387 119.997C214.14 119.817 214.93 119.874 215.65 120.161C216.371 120.447 216.989 120.949 217.421 121.601Z" fill="#FFB8B8"/>
<path d="M235.371 124.132C235.333 123.897 235.346 123.656 235.409 123.427C235.471 123.197 235.581 122.984 235.733 122.802L241.008 116.433C241.637 115.395 242.647 114.653 243.815 114.368C244.983 114.084 246.215 114.281 247.24 114.916C248.265 115.552 249 116.573 249.284 117.757C249.568 118.941 249.377 120.191 248.753 121.232L245.516 128.904C245.424 129.123 245.286 129.319 245.112 129.479C244.938 129.639 244.733 129.759 244.509 129.831C244.285 129.903 244.048 129.926 243.815 129.897C243.582 129.868 243.358 129.788 243.158 129.663L236.128 125.279C235.928 125.154 235.757 124.987 235.626 124.789C235.495 124.591 235.408 124.367 235.371 124.132Z" fill="#2C2C2C"/>
<path d="M240.043 110.923C242.635 107.541 244.072 103.397 244.138 99.1144C242.918 100.034 241.537 100.71 240.069 101.108C238.51 101.529 236.797 101.613 235.329 100.935C233.264 99.981 232.042 97.5473 232.276 95.2575C232.511 92.9678 234.071 90.9224 236.103 89.8955C238.182 88.9093 240.554 88.7637 242.736 89.4883C243.89 88.4914 245.303 87.8531 246.806 87.6497C248.309 87.4463 249.838 87.6865 251.209 88.3415C254.366 89.9129 256.112 93.5518 256.415 97.105C256.718 100.658 255.818 104.191 254.925 107.641L254.825 108.031C254.547 109.104 253.739 111.165 253.739 111.165C253.739 111.165 249.049 110.226 247.186 109.625C244.485 110.615 240.043 110.923 240.043 110.923Z" fill="#2F2E41"/>
<path d="M217.686 111.789L213.864 112.07C213.768 112.077 213.673 112.045 213.6 111.981C213.528 111.917 213.483 111.826 213.476 111.729C213.469 111.632 213.5 111.535 213.563 111.462C213.626 111.388 213.716 111.342 213.812 111.335L217.633 111.055C217.681 111.051 217.729 111.057 217.774 111.072C217.819 111.087 217.861 111.112 217.898 111.143C217.934 111.175 217.963 111.213 217.985 111.257C218.006 111.3 218.019 111.347 218.022 111.395C218.026 111.444 218.02 111.492 218.005 111.538C217.99 111.584 217.966 111.627 217.935 111.663C217.903 111.7 217.865 111.73 217.823 111.751C217.78 111.773 217.733 111.786 217.686 111.789Z" fill="#3F3D56"/>
<path d="M217.817 113.626L213.995 113.906C213.947 113.91 213.9 113.904 213.854 113.889C213.809 113.874 213.767 113.849 213.731 113.818C213.695 113.786 213.665 113.748 213.644 113.704C213.622 113.661 213.609 113.614 213.606 113.566C213.602 113.517 213.608 113.469 213.624 113.423C213.639 113.377 213.662 113.334 213.694 113.298C213.725 113.261 213.763 113.231 213.806 113.21C213.849 113.188 213.895 113.175 213.943 113.172L217.764 112.891C217.86 112.884 217.955 112.916 218.028 112.98C218.101 113.044 218.146 113.135 218.153 113.232C218.16 113.329 218.128 113.426 218.065 113.5C218.002 113.573 217.913 113.619 217.817 113.626Z" fill="#3F3D56"/>
<path d="M217.948 115.462L214.126 115.743C214.03 115.75 213.936 115.718 213.863 115.654C213.79 115.59 213.746 115.499 213.739 115.402C213.732 115.305 213.763 115.209 213.826 115.135C213.889 115.061 213.978 115.016 214.074 115.008L217.895 114.728C217.992 114.721 218.086 114.753 218.159 114.817C218.232 114.881 218.277 114.971 218.284 115.069C218.291 115.166 218.259 115.262 218.196 115.336C218.133 115.41 218.044 115.455 217.948 115.462Z" fill="#3F3D56"/>
<path d="M328.637 188H0.363135C0.266825 188 0.17446 187.961 0.106359 187.892C0.0382584 187.823 0 187.729 0 187.632C0 187.534 0.0382584 187.44 0.106359 187.371C0.17446 187.302 0.266825 187.263 0.363135 187.263H328.637C328.733 187.263 328.826 187.302 328.894 187.371C328.962 187.44 329 187.534 329 187.632C329 187.729 328.962 187.823 328.894 187.892C328.826 187.961 328.733 188 328.637 188Z" fill="#3F3D56"/>
<path d="M174.588 65.3673H137.911C137.045 65.3663 136.214 65.0168 135.601 64.3954C134.988 63.7741 134.644 62.9316 134.643 62.0529V30.0137C134.644 29.135 134.988 28.2926 135.601 27.6712C136.214 27.0499 137.045 26.7003 137.911 26.6993H174.588C175.454 26.7003 176.285 27.0499 176.898 27.6712C177.51 28.2926 177.855 29.135 177.856 30.0137V62.0529C177.855 62.9316 177.51 63.7741 176.898 64.3954C176.285 65.0168 175.454 65.3663 174.588 65.3673ZM137.911 27.4359C137.237 27.4366 136.591 27.7085 136.114 28.1918C135.638 28.675 135.37 29.3303 135.369 30.0137V62.0529C135.37 62.7364 135.638 63.3916 136.114 63.8749C136.591 64.3582 137.237 64.63 137.911 64.6308H174.588C175.262 64.63 175.908 64.3582 176.384 63.8749C176.861 63.3916 177.129 62.7364 177.13 62.0529V30.0137C177.129 29.3303 176.861 28.675 176.384 28.1918C175.908 27.7085 175.262 27.4366 174.588 27.4359H137.911Z" fill="#F2F2F2"/>
<path d="M169.225 60.3957H143.273C142.455 60.3947 141.67 60.0646 141.092 59.4778C140.513 58.891 140.188 58.0953 140.187 57.2654V34.8012C140.188 33.9713 140.513 33.1756 141.092 32.5888C141.67 32.0019 142.455 31.6718 143.273 31.6709H169.225C170.044 31.6718 170.828 32.0019 171.407 32.5888C171.985 33.1756 172.311 33.9713 172.312 34.8012V57.2654C172.311 58.0953 171.985 58.891 171.407 59.4778C170.828 60.0646 170.044 60.3947 169.225 60.3957Z" fill="#E6E6E6"/>
<path d="M156.431 21.9118C157.434 21.9118 158.247 21.0875 158.247 20.0705C158.247 19.0536 157.434 18.2292 156.431 18.2292C155.428 18.2292 154.615 19.0536 154.615 20.0705C154.615 21.0875 155.428 21.9118 156.431 21.9118Z" fill="#F2F2F2"/>
<path d="M160.248 27.2569L156.432 20.789L152.637 27.2558L152.013 26.8794L156.43 19.3521L160.872 26.8783L160.248 27.2569Z" fill="#F2F2F2"/>
<path d="M160.607 43.4554C160.606 42.8981 160.546 42.3424 160.427 41.7982H154.978C154.593 41.7982 154.224 41.9534 153.951 42.2297C153.679 42.5059 153.526 42.8806 153.526 43.2713V51.1611C155.448 51.0228 157.247 50.1509 158.561 48.7211C159.875 47.2913 160.606 45.4098 160.607 43.4554Z" fill="#2C2C2C"/>
<path d="M152.981 51.5573C151.474 51.5578 149.998 51.1262 148.723 50.3123C147.448 49.4983 146.425 48.3352 145.774 46.9572C145.123 45.5792 144.869 44.0425 145.042 42.5245C145.215 41.0065 145.808 39.5692 146.752 38.3783C147.697 37.1875 148.954 36.2917 150.379 35.7945C151.803 35.2973 153.338 35.2188 154.805 35.5682C156.272 35.9175 157.611 36.6805 158.669 37.769C159.726 38.8574 160.459 40.227 160.782 41.7197L160.878 42.1665H154.978C154.689 42.1668 154.413 42.2833 154.208 42.4905C154.004 42.6976 153.889 42.9784 153.889 43.2713V51.5043L153.488 51.533C153.32 51.5454 153.152 51.5573 152.981 51.5573ZM152.981 36.0901C151.055 36.0901 149.208 36.8661 147.846 38.2474C146.484 39.6286 145.718 41.502 145.718 43.4554C145.718 45.4088 146.484 47.2822 147.846 48.6635C149.208 50.0448 151.055 50.8208 152.981 50.8208C153.042 50.8208 153.102 50.819 153.163 50.8161V43.2713C153.163 42.7831 153.355 42.3151 153.695 41.9699C154.035 41.6247 154.497 41.4305 154.978 41.43H159.961C159.521 39.8955 158.604 38.5464 157.346 37.584C156.088 36.6216 154.557 36.0976 152.981 36.0901Z" fill="white"/>
<path d="M163.694 53.9511H154.979C154.497 53.9505 154.036 53.7563 153.695 53.4111C153.355 53.0659 153.163 52.5979 153.163 52.1097V50.8181L153.5 50.7938C154.54 50.721 155.552 50.4216 156.467 49.9159C157.382 49.4102 158.179 48.7102 158.803 47.8637C159.426 47.0173 159.863 46.0442 160.082 45.011C160.301 43.9778 160.298 42.9088 160.072 41.877L159.976 41.43H163.694C164.175 41.4306 164.637 41.6247 164.977 41.9699C165.317 42.3151 165.509 42.7831 165.509 43.2713V52.1097C165.509 52.5979 165.317 53.0659 164.977 53.4111C164.637 53.7563 164.175 53.9505 163.694 53.9511ZM153.889 51.4969V52.1097C153.889 52.4026 154.004 52.6834 154.209 52.8906C154.413 53.0977 154.69 53.2142 154.979 53.2145H163.694C163.983 53.2142 164.259 53.0977 164.464 52.8906C164.668 52.6834 164.783 52.4026 164.783 52.1097V43.2713C164.783 42.9784 164.668 42.6976 164.464 42.4905C164.259 42.2834 163.983 42.1669 163.694 42.1665H160.866C160.935 42.5926 160.97 43.0237 160.97 43.4555C160.964 45.442 160.239 47.3573 158.935 48.839C157.63 50.3208 155.835 51.2664 153.889 51.4969Z" fill="white"/>
</g>
<defs>
<clipPath id="clip0_491_371">
<rect width="329" height="188" fill="white"/>
</clipPath>
</defs>
</svg>
