<svg width="27" height="24" viewBox="0 0 27 24" fill="none" xmlns="http://www.w3.org/2000/svg">
<path d="M19.0108 19.0912H7.56455C4.94335 19.0912 2.81299 17.0704 2.81299 14.584V8.5072C2.81299 6.0208 4.94335 4 7.56455 4H19.0108C21.632 4 23.7624 6.0208 23.7624 8.5072V14.5888C23.7624 17.0704 21.632 19.0912 19.0108 19.0912ZM7.66576 5.1136C5.6619 5.1136 4.03757 6.6592 4.03757 8.5552V14.5264C4.03757 16.4272 5.66696 17.968 7.66576 17.968H18.9096C20.9135 17.968 22.5378 16.4224 22.5378 14.5264V8.56C22.5378 6.6592 20.9084 5.1184 18.9096 5.1184H7.66576V5.1136Z" fill="#EEEEEE"/>
<path d="M13.2878 12.2033C12.7615 12.2033 12.2353 12.0641 11.7647 11.7857L5.77334 8.24806C5.50009 8.08486 5.41913 7.74886 5.58611 7.48966C5.75816 7.23046 6.11238 7.15366 6.38563 7.31206L12.377 10.8497C12.9386 11.1809 13.6319 11.1809 14.1936 10.8497L20.1849 7.31206C20.4582 7.14886 20.8174 7.23046 20.9844 7.48966C21.1565 7.74886 21.0704 8.08966 20.7972 8.24806L14.8059 11.7857C14.3403 12.0641 13.8141 12.2033 13.2878 12.2033Z" fill="#EEEEEE"/>
</svg>
