<svg width="234" height="33" viewBox="0 0 234 33" fill="none" xmlns="http://www.w3.org/2000/svg">
<path d="M78.8048 31.4125C77.0985 32.0098 75.3338 32.425 73.5401 32.6512C71.5755 32.9031 69.5951 33.01 67.6148 32.9713C63.8027 33.1367 59.9933 32.587 56.3835 31.3506C54.6782 30.7512 53.1217 29.792 51.8197 28.5381C50.5177 27.2842 49.5006 25.7649 48.8375 24.0833C47.1307 19.2186 47.1307 13.9179 48.8375 9.05317C49.4871 7.36009 50.4992 5.82952 51.8027 4.5688C53.1062 3.30807 54.6697 2.34769 56.3835 1.7549C59.9961 0.531385 63.8043 -0.0111343 67.6148 0.154863C71.4055 -0.0203647 75.1951 0.522501 78.7842 1.7549C80.5068 2.3402 82.0796 3.29748 83.3909 4.55878C84.7021 5.82008 85.7197 7.3545 86.3715 9.05317C87.2954 11.4795 87.7236 14.0665 87.6308 16.6611C87.6974 19.2238 87.2699 21.7752 86.3715 24.1761C85.7367 25.8743 84.7265 27.4072 83.4162 28.6603C82.106 29.9133 80.5296 30.8541 78.8048 31.4125ZM74.1595 8.83637C72.1177 7.86285 69.8625 7.42248 67.6045 7.55634C62.3605 7.55634 59.1191 9.17706 57.8803 12.4184C57.0132 15.11 57.0132 18.0058 57.8803 20.6973C59.1191 23.9181 62.3605 25.5319 67.6045 25.5388C69.8691 25.667 72.1314 25.2493 74.2008 24.3207C75.6347 23.5789 76.7473 22.3377 77.3286 20.8315C77.7943 19.4962 78.001 18.0843 77.9377 16.6715C77.9987 15.2284 77.7922 13.7864 77.3286 12.4184C76.7329 10.8849 75.609 9.61458 74.1595 8.83637Z" fill="white"/>
<path d="M124.205 0.980656H134.538C134.761 0.97735 134.977 1.06033 135.14 1.21227C135.304 1.3642 135.402 1.57334 135.415 1.79614V31.2267C135.412 31.4584 135.319 31.6797 135.155 31.8436C134.991 32.0074 134.77 32.1009 134.538 32.1041H126.93C126.698 32.1009 126.477 32.0074 126.313 31.8436C126.149 31.6797 126.056 31.4584 126.053 31.2267V17.5385C126.056 17.4364 126.024 17.3364 125.961 17.256C125.898 17.1756 125.808 17.12 125.708 17.099C125.608 17.078 125.504 17.093 125.414 17.1413C125.324 17.1896 125.254 17.2681 125.216 17.3631L118.445 31.588C118.386 31.7462 118.278 31.8815 118.137 31.9743C117.996 32.0671 117.829 32.1126 117.66 32.1041H110.527C110.36 32.1044 110.197 32.0555 110.057 31.9638C109.918 31.872 109.808 31.7414 109.742 31.588L102.971 17.3631C102.938 17.2693 102.872 17.1909 102.785 17.1427C102.699 17.0944 102.597 17.0797 102.5 17.1014C102.403 17.1231 102.318 17.1796 102.26 17.2602C102.202 17.3408 102.176 17.4398 102.186 17.5385V31.2267C102.188 31.3424 102.167 31.4573 102.123 31.5646C102.08 31.6718 102.015 31.7693 101.933 31.8512C101.851 31.933 101.754 31.9976 101.647 32.041C101.539 32.0845 101.424 32.106 101.309 32.1041H93.7008C93.469 32.1009 93.2477 32.0074 93.0838 31.8436C92.92 31.6797 92.8265 31.4584 92.8233 31.2267V1.79614C92.838 1.57397 92.9371 1.36586 93.1002 1.21428C93.2633 1.0627 93.4781 0.979115 93.7008 0.980656H103.993C104.154 0.968697 104.315 1.00567 104.455 1.08669C104.595 1.16772 104.707 1.28905 104.777 1.43486L113.717 19.4689C113.747 19.5487 113.8 19.6175 113.871 19.666C113.941 19.7145 114.024 19.7404 114.109 19.7404C114.194 19.7404 114.278 19.7145 114.348 19.666C114.418 19.6175 114.471 19.5487 114.501 19.4689L123.482 1.43486C123.543 1.29515 123.644 1.17701 123.773 1.09596C123.902 1.0149 124.053 0.974721 124.205 0.980656Z" fill="white"/>
<path d="M168.758 10.9319C168.548 10.9296 168.347 10.8471 168.195 10.7013C168.044 10.5555 167.953 10.3574 167.943 10.1474C167.904 9.63315 167.689 9.14803 167.334 8.77444C166.732 8.26075 165.999 7.92474 165.218 7.80409C163.253 7.48308 161.262 7.34145 159.272 7.38088H158.848C156.886 7.33538 154.925 7.49448 152.995 7.85569C151.148 8.33054 150.311 9.18737 150.497 10.4674C150.536 10.7963 150.676 11.105 150.898 11.3509C151.12 11.5969 151.413 11.7679 151.736 11.8404C152.361 12.0181 153 12.1458 153.646 12.2223L159.158 12.5629C161.254 12.5836 162.988 12.6558 164.381 12.7694C165.796 12.8829 167.22 13.0584 168.634 13.3062C169.858 13.4859 171.055 13.8188 172.196 14.2972C174.153 15.0877 175.766 16.5473 176.748 18.416C177.345 19.6313 177.632 20.9753 177.584 22.3284C177.609 23.7474 177.342 25.1564 176.8 26.4679C176.028 28.1905 174.717 29.6147 173.063 30.5247C170.296 32.1248 165.723 32.9093 159.334 32.93H159.127C152.624 32.93 148.03 32.1661 145.346 30.6073C143.683 29.6899 142.37 28.2493 141.609 26.5091C141.193 25.6079 140.941 24.6395 140.866 23.6497C140.866 23.5362 140.845 23.2678 140.825 22.8652C140.828 22.6335 140.921 22.4122 141.085 22.2483C141.249 22.0844 141.47 21.9909 141.702 21.9877H149.651C149.868 21.9793 150.08 22.057 150.24 22.2039C150.401 22.3508 150.497 22.555 150.508 22.7723C150.5 23.035 150.551 23.2961 150.656 23.537C150.762 23.7779 150.919 23.9926 151.117 24.1659C151.704 24.676 152.423 25.012 153.191 25.1362C155.156 25.4585 157.147 25.5932 159.137 25.5388H159.344C161.29 25.5905 163.236 25.4557 165.156 25.1362C167.096 24.713 168.015 23.8252 167.922 22.5452C167.902 22.2059 167.776 21.8816 167.561 21.6184C167.346 21.3552 167.053 21.1665 166.725 21.0793C166.117 20.8299 165.471 20.6868 164.815 20.6561L159.189 20.3361C157.145 20.2638 155.411 20.2018 154.007 20.1089C152.613 19.9954 151.189 19.8405 149.754 19.5928C148.531 19.406 147.336 19.0734 146.193 18.6018C144.267 17.7737 142.675 16.3234 141.671 14.483C141.071 13.2578 140.784 11.903 140.835 10.5397C140.804 9.12015 141.071 7.70989 141.62 6.40019C142.391 4.67755 143.703 3.25332 145.356 2.34331C148.04 0.794881 152.624 0 159.137 0H159.344C165.847 0 170.441 0.781117 173.125 2.34331C174.781 3.25054 176.093 4.67561 176.862 6.40019C177.302 7.41299 177.553 8.49732 177.605 9.60026C177.646 9.78671 177.647 9.97972 177.608 10.1666C177.569 10.3534 177.49 10.5299 177.378 10.6842C177.298 10.7643 177.203 10.8275 177.099 10.8701C176.994 10.9126 176.882 10.9337 176.769 10.9319H168.758Z" fill="white"/>
<path d="M195.237 0.980635H204.579C204.739 0.97636 204.897 1.01657 205.035 1.09675C205.174 1.17694 205.287 1.29397 205.363 1.43484L219.795 30.8654C219.851 30.9965 219.876 31.1394 219.865 31.2818C219.855 31.4243 219.81 31.5622 219.735 31.6837C219.661 31.8053 219.557 31.9071 219.435 31.9803C219.312 32.0534 219.173 32.0959 219.031 32.1041H210.545C210.377 32.1126 210.21 32.0671 210.069 31.9743C209.928 31.8815 209.82 31.7462 209.761 31.588L208.181 28.3672H191.727L190.106 31.6499C190.037 31.7919 189.928 31.9105 189.792 31.9912C189.656 32.0719 189.5 32.1112 189.342 32.1041H180.857C180.708 32.1109 180.56 32.0782 180.428 32.0094C180.296 31.9406 180.185 31.8381 180.105 31.7124C180.025 31.5866 179.98 31.442 179.975 31.2933C179.969 31.1446 180.003 30.9969 180.072 30.8654L194.504 1.43484C194.565 1.29378 194.669 1.17478 194.799 1.09367C194.93 1.01255 195.083 0.973152 195.237 0.980635ZM196.021 20.8831H203.763C203.836 20.8814 203.908 20.8609 203.97 20.8236C204.033 20.7863 204.085 20.7335 204.121 20.6701C204.158 20.6068 204.177 20.5352 204.178 20.4622C204.178 20.3892 204.16 20.3173 204.125 20.2534L200.295 12.3461C200.253 12.2796 200.195 12.2247 200.127 12.1866C200.058 12.1485 199.981 12.1286 199.902 12.1286C199.824 12.1286 199.747 12.1485 199.678 12.1866C199.61 12.2247 199.552 12.2796 199.51 12.3461L195.588 20.2534C195.557 20.3236 195.545 20.4003 195.553 20.4763C195.56 20.5524 195.587 20.6253 195.63 20.6883C195.673 20.7512 195.732 20.8021 195.8 20.8362C195.869 20.8703 195.945 20.8864 196.021 20.8831Z" fill="white"/>
<path d="M232.43 32.0939H224.822C224.59 32.0907 224.369 31.9971 224.205 31.8333C224.041 31.6694 223.948 31.4481 223.944 31.2164V1.78586C223.959 1.56369 224.058 1.35558 224.221 1.204C224.384 1.05242 224.599 0.96883 224.822 0.970371H232.43C232.653 0.967065 232.869 1.05004 233.032 1.20198C233.196 1.35392 233.294 1.56306 233.307 1.78586V31.2164C233.308 31.3319 233.286 31.4464 233.242 31.5533C233.199 31.6602 233.134 31.7573 233.052 31.839C232.971 31.9207 232.874 31.9853 232.767 32.029C232.66 32.0728 232.545 32.0948 232.43 32.0939Z" fill="white"/>
<path d="M12.6765 32.0939H4.72791C4.63301 32.0939 4.53905 32.0752 4.45138 32.0389C4.36371 32.0025 4.28405 31.9493 4.21695 31.8822C4.14985 31.8151 4.09663 31.7355 4.06031 31.6478C4.024 31.5601 4.00531 31.4661 4.00531 31.3713V1.70333C4.00531 1.51168 4.08144 1.32786 4.21695 1.19235C4.35247 1.05684 4.53626 0.980713 4.72791 0.980713H12.6765C12.8682 0.980713 13.052 1.05684 13.1875 1.19235C13.323 1.32786 13.3991 1.51168 13.3991 1.70333V31.3713C13.3991 31.5629 13.323 31.7467 13.1875 31.8822C13.052 32.0177 12.8682 32.0939 12.6765 32.0939Z" fill="white"/>
<path d="M39.2682 32.0939H31.3196C31.2247 32.0939 31.1307 32.0752 31.0431 32.0389C30.9554 32.0025 30.8757 31.9493 30.8086 31.8822C30.7415 31.8151 30.6883 31.7355 30.652 31.6478C30.6157 31.5601 30.597 31.4661 30.597 31.3713V1.70333C30.597 1.51168 30.6731 1.32786 30.8086 1.19235C30.9442 1.05684 31.1279 0.980713 31.3196 0.980713H39.2682C39.4599 0.980713 39.6436 1.05684 39.7792 1.19235C39.9147 1.32786 39.9908 1.51168 39.9908 1.70333V31.3713C39.9884 31.5621 39.9115 31.7445 39.7765 31.8795C39.6415 32.0145 39.4591 32.0915 39.2682 32.0939Z" fill="white"/>
<path d="M44.0064 6.5447V9.33182C44.0064 9.52347 43.9303 9.70728 43.7948 9.8428C43.6592 9.97831 43.4755 10.0544 43.2838 10.0544C29.2988 13.4404 14.7077 13.4404 0.722606 10.0544C0.53096 10.0544 0.347158 9.97831 0.211644 9.8428C0.0761304 9.70728 0 9.52347 0 9.33182V6.5447C0 6.4498 0.01869 6.35583 0.0550041 6.26816C0.0913182 6.18049 0.144545 6.10082 0.211644 6.03372C0.278744 5.96662 0.358403 5.9134 0.446073 5.87709C0.533743 5.84077 0.627712 5.82208 0.722606 5.82208C14.7077 9.20801 29.2988 9.20801 43.2838 5.82208C43.3787 5.82208 43.4727 5.84077 43.5603 5.87709C43.648 5.9134 43.7277 5.96662 43.7948 6.03372C43.8619 6.10082 43.9151 6.18049 43.9514 6.26816C43.9877 6.35583 44.0064 6.4498 44.0064 6.5447Z" fill="white"/>
<path d="M31.5673 14.6689H12.2325V18.9322H31.5673V14.6689Z" fill="white"/>
</svg>
