<svg width="24" height="24" viewBox="0 0 24 24" fill="none" xmlns="http://www.w3.org/2000/svg">
<path d="M12.2544 21.5088C7.15152 21.5088 3 17.3573 3 12.2544C3 7.15152 7.15152 3 12.2544 3C17.3573 3 21.5088 7.15152 21.5088 12.2544C21.5088 17.3573 17.3573 21.5088 12.2544 21.5088ZM12.2544 4.104C7.76016 4.104 4.104 7.76016 4.104 12.2544C4.104 16.7486 7.76016 20.4048 12.2544 20.4048C16.7486 20.4048 20.4048 16.7486 20.4048 12.2544C20.4043 7.76016 16.7482 4.104 12.2544 4.104Z" fill="#F2F2F2"/>
<path d="M17 10.4739C17 10.9097 16.9242 11.2761 16.7657 11.5731C16.6134 11.9017 16.43 12.1292 16.1447 12.3252C16.0055 12.42 15.8787 12.4956 15.765 12.5589C15.6575 12.6159 15.4866 12.6792 15.2646 12.7486C15.0427 12.8181 14.8594 12.8689 14.7133 12.9067L14.0289 13.0587C13.9083 13.0903 13.8139 13.1157 13.7436 13.1219C13.7374 13.1281 13.7312 13.1343 13.7312 13.1412C13.4528 13.2168 13.3129 13.3749 13.3129 13.6148V13.6272C13.3129 13.7599 13.2116 13.8733 13.0662 13.8733H10.9256C10.7926 13.8733 10.6788 13.7722 10.6788 13.6272V13.5261C10.6788 13.0903 10.7547 12.7177 10.9008 12.4145C11.0848 12.0605 11.3122 11.7951 11.5913 11.6123C11.8766 11.4287 12.2502 11.2837 12.725 11.1703L13.9345 10.8609C14.2198 10.7853 14.3653 10.6272 14.3653 10.3811C14.3653 10.0779 14.1813 9.86961 13.8208 9.76169C13.4597 9.64826 12.8456 9.5912 11.9904 9.5912C10.388 9.5912 9.63404 9.86893 9.63404 10.4759V10.4883C9.63404 10.621 9.52033 10.7344 9.38732 10.7344H7.24673C7.11371 10.7344 7 10.621 7 10.4883V10.4759C7 9.88818 7.13301 9.40215 7.39903 9.01031C7.67126 8.61228 8.00069 8.30293 8.39972 8.08158C9.11578 7.69592 10.3129 7.5 11.991 7.5C13.7581 7.5 15.0124 7.72136 15.7664 8.16957C16.2412 8.45417 16.5837 8.83295 16.7795 9.31966C16.9242 9.6462 17 10.0312 17 10.4739ZM13.3136 14.6494V16.2539C13.3136 16.3866 13.2123 16.5 13.0668 16.5H10.9263C10.7932 16.5 10.6795 16.3866 10.6795 16.2539V14.6494C10.6795 14.5167 10.7932 14.4033 10.9263 14.4033H13.0668C13.1999 14.4033 13.3136 14.5167 13.3136 14.6494Z" fill="#F2F2F2"/>
</svg>
