<svg width="24" height="24" viewBox="0 0 24 24" fill="none" xmlns="http://www.w3.org/2000/svg">
<path d="M17.7223 21.9949H14.8721C14.5374 21.9949 14.2707 21.7348 14.2707 21.4083C14.2707 21.0819 14.5374 20.8217 14.8721 20.8217H17.7223C18.5015 20.8217 19.1395 20.2045 19.1395 19.4394V10.5794L19.7409 10.5743H20.3842C20.6456 10.5743 20.745 10.3907 20.7764 10.3091C20.8078 10.2275 20.8548 10.0235 20.6561 9.86024L13.1254 3.58633C12.4717 3.04565 11.5303 3.04565 10.8818 3.58633L3.35112 9.86024C3.15239 10.0286 3.19946 10.2326 3.23084 10.3091C3.26221 10.3907 3.36158 10.5743 3.62306 10.5743H4.86772V19.4445C4.86772 20.2045 5.50051 20.8268 6.28496 20.8268H9.52213C9.85683 20.8268 10.1235 21.087 10.1235 21.4134C10.1235 21.7399 9.85683 22 9.52213 22H6.28496C4.84157 22 3.6649 20.8523 3.6649 19.4445V11.7475H3.62306C2.93797 11.7475 2.34179 11.3395 2.10123 10.7121C1.86589 10.0847 2.04893 9.39607 2.56667 8.96251L10.0974 2.6886C11.2009 1.77047 12.7959 1.77047 13.8994 2.6886L21.4301 8.96251C21.9531 9.39607 22.1361 10.0847 21.8955 10.7121C21.6602 11.3395 21.0588 11.7475 20.3737 11.7475H20.3319V19.4445C20.3371 20.8523 19.1656 21.9949 17.7223 21.9949Z" fill="#EEEEEE"/>
</svg>
