<svg width="24" height="24" viewBox="0 0 24 24" fill="none" xmlns="http://www.w3.org/2000/svg">
<path d="M12.2544 21.5088C7.15152 21.5088 3 17.3573 3 12.2544C3 7.15152 7.15152 3 12.2544 3C17.3573 3 21.5088 7.15152 21.5088 12.2544C21.5088 17.3573 17.3573 21.5088 12.2544 21.5088ZM12.2544 4.104C7.76016 4.104 4.104 7.76016 4.104 12.2544C4.104 16.7486 7.76016 20.4048 12.2544 20.4048C16.7486 20.4048 20.4048 16.7486 20.4048 12.2544C20.4043 7.76016 16.7482 4.104 12.2544 4.104Z" fill="#EEEEEE"/>
<path d="M11.3621 16.5432V10.3944C11.3621 10.3032 11.4403 10.2255 11.5311 10.2255H12.9965C13.0877 10.2255 13.1655 10.2951 13.1655 10.3944V16.5432C13.1655 16.6344 13.0872 16.7079 12.9965 16.7079H11.5311C11.4403 16.7079 11.3621 16.634 11.3621 16.5432ZM11.3621 9.09796V7.99684C11.3621 7.90564 11.4403 7.82788 11.5311 7.82788H12.9965C13.0877 7.82788 13.1655 7.90612 13.1655 7.99684V9.09796C13.1655 9.18916 13.0872 9.26692 12.9965 9.26692H11.5311C11.4403 9.2674 11.3621 9.18916 11.3621 9.09796Z" fill="#EEEEEE"/>
</svg>
