<svg width="27" height="24" viewBox="0 0 27 24" fill="none" xmlns="http://www.w3.org/2000/svg">
<g clip-path="url(#clip0_1355_1262)">
<path d="M7.08574 20.2656C6.26092 20.2656 5.43611 19.968 4.80864 19.3728C3.5537 18.1824 3.5537 16.2432 4.80864 15.0528L9.70695 10.4064C9.93466 10.1904 10.3041 10.1904 10.5318 10.4064C10.7595 10.6224 10.7595 10.9728 10.5318 11.1888L5.63345 15.8352C4.82888 16.5984 4.82888 17.832 5.63345 18.5952C6.43803 19.3584 7.73851 19.3584 8.54309 18.5952L13.4414 13.9488C13.6691 13.7328 14.0385 13.7328 14.2662 13.9488C14.4939 14.1648 14.4939 14.5152 14.2662 14.7312L9.36791 19.3728C8.73538 19.968 7.91056 20.2656 7.08574 20.2656Z" fill="#EEEEEE"/>
<path d="M15.8096 13.032C15.6628 13.032 15.511 12.9792 15.3997 12.8688C15.172 12.6528 15.172 12.3024 15.3997 12.0864L20.298 7.44C20.6876 7.0704 20.9002 6.5808 20.9002 6.0576C20.9002 5.5344 20.6876 5.0448 20.298 4.6752C19.9084 4.3056 19.3922 4.104 18.8406 4.104C18.2891 4.104 17.7729 4.3056 17.3833 4.6752L12.485 9.3216C12.2573 9.5376 11.8879 9.5376 11.6602 9.3216C11.4325 9.1056 11.4325 8.7552 11.6602 8.5392L16.5585 3.8928C17.8134 2.7024 19.8578 2.7024 21.1127 3.8928C22.3676 5.0832 22.3676 7.0224 21.1127 8.2128L16.2144 12.8592C16.1081 12.9792 15.9614 13.032 15.8096 13.032Z" fill="#EEEEEE"/>
<path d="M9.52475 15.4512C9.37801 15.4512 9.2262 15.3984 9.11487 15.288C8.88716 15.072 8.88716 14.7216 9.11487 14.5056L15.9917 7.98243C16.2195 7.76643 16.5889 7.76643 16.8166 7.98243C17.0443 8.19843 17.0443 8.54883 16.8166 8.76483L9.93969 15.288C9.82331 15.3984 9.67656 15.4512 9.52475 15.4512Z" fill="#EEEEEE"/>
</g>
<defs>
<clipPath id="clip0_1355_1262">
<rect width="25.3012" height="24" fill="white" transform="translate(0.704834)"/>
</clipPath>
</defs>
</svg>
