<svg width="48" height="48" viewBox="0 0 48 48" fill="none" xmlns="http://www.w3.org/2000/svg">
<path d="M32 44C34.2 44 36 42.2 36 40L35.98 33.64C35.98 32.58 35.56 31.58 34.82 30.82L28 24L34.82 17.14C35.56 16.4 35.98 15.38 35.98 14.32L36 8C36 5.8 34.2 4 32 4H16C13.8 4 12 5.8 12 8V14.32C12 15.38 12.42 16.4 13.16 17.16L20 24L13.18 30.8C12.42 31.56 12 32.58 12 33.64V40C12 42.2 13.8 44 16 44H32ZM16 14.18V10C16 8.9 16.9 8 18 8H30C31.1 8 32 8.9 32 10V14.18C32 14.72 31.78 15.22 31.42 15.6L24 23L16.58 15.58C16.22 15.22 16 14.7 16 14.18Z" fill="#555555"/>
</svg>
