<svg width="44" height="31" viewBox="0 0 44 31" fill="none" xmlns="http://www.w3.org/2000/svg">
<path d="M12.6747 31H4.72722C4.63234 31 4.53839 30.9814 4.45073 30.9452C4.36308 30.909 4.28343 30.856 4.21634 30.7891C4.14925 30.7223 4.09603 30.6429 4.05972 30.5555C4.02341 30.4682 4.00473 30.3746 4.00473 30.28V0.719986C4.00473 0.529037 4.08085 0.345888 4.21634 0.210867C4.35183 0.0758457 4.5356 0 4.72722 0H12.6747C12.8663 0 13.0501 0.0758457 13.1856 0.210867C13.3211 0.345888 13.3972 0.529037 13.3972 0.719986V30.28C13.3972 30.471 13.3211 30.6541 13.1856 30.7891C13.0501 30.9242 12.8663 31 12.6747 31Z" fill="white"/>
<path d="M39.2625 31H31.315C31.2201 31 31.1262 30.9814 31.0385 30.9452C30.9509 30.909 30.8712 30.856 30.8041 30.7891C30.7371 30.7223 30.6838 30.6429 30.6475 30.5555C30.6112 30.4682 30.5925 30.3746 30.5925 30.28V0.719986C30.5925 0.529037 30.6687 0.345888 30.8041 0.210867C30.9396 0.0758457 31.1234 0 31.315 0H39.2625C39.4541 0 39.6379 0.0758457 39.7734 0.210867C39.9089 0.345888 39.985 0.529037 39.985 0.719986V30.28C39.9826 30.4702 39.9057 30.6519 39.7707 30.7864C39.6357 30.9209 39.4534 30.9976 39.2625 31Z" fill="white"/>
<path d="M44 5.54372V8.32071C44 8.51165 43.9239 8.6948 43.7884 8.82982C43.6529 8.96485 43.4691 9.04069 43.2775 9.04069C29.2945 12.4143 14.7055 12.4143 0.722501 9.04069C0.530883 9.04069 0.347108 8.96485 0.211614 8.82982C0.0761193 8.6948 0 8.51165 0 8.32071V5.54372C0 5.44917 0.0186873 5.35554 0.0549961 5.26819C0.0913049 5.18084 0.144524 5.10145 0.211614 5.0346C0.278704 4.96774 0.358351 4.91472 0.446008 4.87853C0.533666 4.84235 0.627621 4.82373 0.722501 4.82373C14.7055 8.19735 29.2945 8.19735 43.2775 4.82373C43.3724 4.82373 43.4663 4.84235 43.554 4.87853C43.6416 4.91472 43.7213 4.96774 43.7884 5.0346C43.8555 5.10145 43.9087 5.18084 43.945 5.26819C43.9813 5.35554 44 5.44917 44 5.54372Z" fill="white"/>
<path d="M31.5627 13.6384H12.2308V17.8863H31.5627V13.6384Z" fill="white"/>
</svg>
