<svg width="24" height="24" viewBox="0 0 24 24" fill="none" xmlns="http://www.w3.org/2000/svg">
<path d="M19.9998 12.2639C19.9998 12.5711 19.755 12.8159 19.4478 12.8159H13.5054C13.1982 12.8159 12.9534 12.5711 12.9534 12.2639C12.9534 11.9567 13.1982 11.7119 13.5054 11.7119H19.4478C19.755 11.7119 19.9998 11.9567 19.9998 12.2639Z" fill="#EEEEEE"/>
<path d="M18.1662 13.3871L19.2894 12.2639L18.1662 11.1407H19.1214L20.2446 12.2639L19.1214 13.3871H18.1662Z" fill="#EEEEEE"/>
<path d="M17.0843 21.528H6.61072C5.1712 21.528 4 20.3568 4 18.9173V5.61072C3.99952 4.1712 5.17072 3 6.61024 3H17.0838C18.5234 3 19.6946 4.1712 19.6946 5.61072V8.544C19.6946 8.8488 19.4474 9.096 19.1426 9.096C18.8378 9.096 18.5906 8.8488 18.5906 8.544V5.61072C18.5906 4.77984 17.9147 4.104 17.0838 4.104H6.61024C5.77936 4.104 5.10352 4.77984 5.10352 5.61072V18.9168C5.10352 19.7477 5.77936 20.4235 6.61024 20.4235H17.0838C17.9147 20.4235 18.5906 19.7477 18.5906 18.9168V15.984C18.5906 15.6792 18.8378 15.432 19.1426 15.432C19.4474 15.432 19.6946 15.6792 19.6946 15.984V18.9173C19.695 20.3568 18.5238 21.528 17.0843 21.528Z" fill="#EEEEEE"/>
</svg>
