<svg width="27" height="24" viewBox="0 0 27 24" fill="none" xmlns="http://www.w3.org/2000/svg">
<g clip-path="url(#clip0_1355_1289)">
<path d="M13.3554 2.66882C9.09469 2.66882 5.63348 5.95682 5.63348 9.99362C5.63348 13.9248 12.6622 20.8704 12.9607 21.1632C13.0619 21.264 13.2087 21.3216 13.3554 21.3216C13.5022 21.3216 13.6489 21.264 13.7501 21.1632C14.0487 20.8704 21.0773 13.92 21.0773 9.99362C21.0773 5.95682 17.6161 2.66882 13.3554 2.66882ZM13.3554 3.71042C17.0089 3.71042 19.9843 6.52802 19.9843 9.99842C19.9843 11.2992 19.0279 13.2192 17.1405 15.696C15.6882 17.6016 14.074 19.3152 13.3605 20.0496C12.647 19.3152 11.0328 17.6016 9.58047 15.696C7.68794 13.2192 6.7265 11.2992 6.7265 9.99842C6.7265 6.53282 9.70192 3.71042 13.3554 3.71042Z" fill="#EEEEEE"/>
<path d="M13.3554 12.5184C15.2884 12.5184 16.8571 11.0256 16.8571 9.19684C16.8571 7.36804 15.2833 5.87524 13.3554 5.87524C11.4224 5.87524 9.8537 7.36804 9.8537 9.19684C9.8537 11.0256 11.4224 12.5184 13.3554 12.5184ZM13.3554 6.91684C14.6812 6.91684 15.759 7.93924 15.759 9.19684C15.759 10.4544 14.6812 11.4768 13.3554 11.4768C12.0296 11.4768 10.9518 10.4544 10.9518 9.19684C10.9518 7.93924 12.0296 6.91684 13.3554 6.91684Z" fill="#EEEEEE"/>
</g>
<defs>
<clipPath id="clip0_1355_1289">
<rect width="25.3012" height="24" fill="white" transform="translate(0.704834)"/>
</clipPath>
</defs>
</svg>
