<svg width="27" height="24" viewBox="0 0 27 24" fill="none" xmlns="http://www.w3.org/2000/svg">
<path d="M12.2826 21.2161C12.2169 21.2161 12.1561 21.2065 12.0904 21.1873C11.8424 21.1057 11.6805 20.8753 11.7007 20.6257L12.2219 14.2417L8.80121 12.5857C8.58361 12.4801 8.45711 12.2545 8.48747 12.0241L9.69181 3.26406C9.72723 2.99046 9.97518 2.78406 10.2687 2.78406H17.6465C17.8439 2.78406 18.026 2.87526 18.1323 3.03366C18.2386 3.19206 18.2588 3.38406 18.1829 3.55206L15.5161 9.52326L18.6434 11.7745C18.8913 11.9521 18.947 12.2785 18.7749 12.5233L12.7634 20.9713C12.6571 21.1249 12.4699 21.2161 12.2826 21.2161ZM9.69687 11.7793L13.1024 13.4209C13.3099 13.5217 13.4364 13.7329 13.4212 13.9537L13.0417 18.6193L17.4998 12.3361L14.4535 10.1425C14.241 9.98886 14.1651 9.72006 14.2713 9.48966L16.766 3.88806H10.7798L9.69687 11.7793Z" fill="#EEEEEE"/>
</svg>
