<svg width="24" height="24" viewBox="0 0 24 24" fill="none" xmlns="http://www.w3.org/2000/svg">
<path d="M13.1804 21.5069H10.6388C9.5727 21.5069 8.70581 20.6395 8.70581 19.5739C8.70581 19.2043 8.51478 18.8731 8.19414 18.6878C7.87446 18.5035 7.49189 18.503 7.17221 18.6878C6.72485 18.9461 6.20357 19.0142 5.70533 18.8813C5.20661 18.7478 4.78949 18.4277 4.53125 17.9803L3.26069 15.779C3.00245 15.3322 2.93381 14.8114 3.06773 14.3122C3.20165 13.813 3.52133 13.3963 3.96869 13.1381C4.28789 12.9542 4.47893 12.623 4.47893 12.2534C4.47893 11.8834 4.28789 11.5526 3.96773 11.3678C3.52037 11.1096 3.20069 10.693 3.06677 10.1942C2.93285 9.69552 3.00197 9.17472 3.25973 8.72736L4.53029 6.52656C4.78853 6.0792 5.20565 5.75952 5.70437 5.6256C6.20309 5.49168 6.72437 5.5608 7.17125 5.81856C7.49141 6.00288 7.8735 6.00288 8.19366 5.81856C8.51381 5.63376 8.70486 5.30256 8.70486 4.93296C8.70486 3.86688 9.57222 3 10.6378 3H13.1794C14.2455 3 15.1124 3.86736 15.1124 4.93296C15.1124 5.30256 15.3034 5.63376 15.6236 5.81856C15.9437 6.00288 16.3258 6.0024 16.646 5.81856C17.0929 5.55984 17.6137 5.49072 18.1129 5.6256C18.6116 5.75904 19.0287 6.0792 19.2869 6.52656L20.558 8.72736C20.8162 9.17472 20.8844 9.69552 20.7509 10.1942C20.6175 10.693 20.2973 11.1101 19.85 11.3678C19.5298 11.5526 19.3388 11.8834 19.3388 12.2534C19.3388 12.623 19.5298 12.9542 19.85 13.139C20.773 13.6723 21.0908 14.8565 20.558 15.7795L19.2869 17.9808C19.0287 18.4282 18.6116 18.7478 18.1129 18.8818C17.6137 19.0147 17.0933 18.947 16.646 18.6883C16.3258 18.504 15.9437 18.5035 15.6236 18.6883C15.3034 18.8731 15.1124 19.2038 15.1124 19.5739C15.1133 20.64 14.246 21.5069 13.1804 21.5069ZM7.68293 17.6376C8.01462 17.6376 8.34678 17.725 8.64966 17.8997C9.25494 18.2491 9.61638 18.875 9.61638 19.5739C9.61638 20.1379 10.0753 20.5968 10.6388 20.5968H13.1804C13.7439 20.5968 14.2028 20.1379 14.2028 19.5744C14.2028 18.8755 14.5642 18.2496 15.1695 17.9002C15.7748 17.5507 16.4977 17.5507 17.1025 17.9002C17.5911 18.1829 18.2175 18.0144 18.4993 17.5262L19.7703 15.325C20.0521 14.8368 19.8845 14.2099 19.3959 13.9282C18.7906 13.5787 18.4292 12.9528 18.4292 12.2539C18.4292 11.555 18.7906 10.9291 19.3959 10.5797C19.8841 10.2979 20.0521 9.67152 19.7703 9.18288L18.4993 6.98208C18.3629 6.74544 18.1421 6.576 17.8781 6.50544C17.6141 6.4344 17.3386 6.47088 17.1025 6.60768C16.4972 6.95808 15.7743 6.95712 15.1695 6.60768C14.5642 6.25824 14.2028 5.63232 14.2028 4.93344C14.2028 4.36992 13.7439 3.91104 13.1804 3.91104H10.6388C10.0753 3.91104 9.61638 4.36992 9.61638 4.93344C9.61638 5.63232 9.25494 6.25824 8.64966 6.60768C8.04437 6.9576 7.32198 6.95712 6.7167 6.60768C6.22853 6.32592 5.60165 6.49392 5.31989 6.98208L4.04933 9.18288C3.91253 9.41952 3.87653 9.69504 3.94709 9.95904C4.01765 10.223 4.18709 10.4434 4.42325 10.5797C5.02853 10.9291 5.38997 11.555 5.38997 12.2539C5.38997 12.9528 5.02853 13.5787 4.42325 13.9282C4.18661 14.0645 4.01765 14.2853 3.94709 14.5493C3.87653 14.8133 3.91253 15.0888 4.04933 15.325L5.32037 17.5262C5.45669 17.7629 5.67749 17.9318 5.94149 18.0024C6.20549 18.073 6.48101 18.037 6.71717 17.9002C7.01861 17.725 7.35077 17.6376 7.68293 17.6376Z" fill="#EEEEEE"/>
<path d="M11.9093 15.3922C10.1789 15.3922 8.77063 13.9843 8.77063 12.2535C8.77063 10.5226 10.1785 9.11475 11.9093 9.11475C13.6402 9.11475 15.0481 10.5226 15.0481 12.2535C15.0481 13.9843 13.6397 15.3922 11.9093 15.3922ZM11.9093 10.0253C10.6805 10.0253 9.68119 11.0247 9.68119 12.2535C9.68119 13.4823 10.6805 14.4816 11.9093 14.4816C13.1381 14.4816 14.1375 13.4823 14.1375 12.2535C14.1375 11.0247 13.1381 10.0253 11.9093 10.0253Z" fill="#EEEEEE"/>
</svg>
