<svg width="24" height="24" viewBox="0 0 24 24" fill="none" xmlns="http://www.w3.org/2000/svg">
<path d="M12.5405 21.5823H11.7197C9.60772 21.5823 7.88932 19.8639 7.88932 17.7519V17.1135C7.88932 16.3935 7.58212 15.6831 7.03012 15.1119C5.62852 13.6719 4.90852 11.7711 5.00932 9.75992C5.19652 6.11672 8.19652 3.15033 11.8445 3.00633C13.8077 2.92473 15.6605 3.63513 17.0717 4.98872C18.4829 6.34712 19.2605 8.17112 19.2605 10.1295C19.2605 12.0063 18.5357 13.7775 17.2253 15.1167C16.6733 15.6783 16.3709 16.3839 16.3709 17.1087V17.7471C16.3757 19.8639 14.6573 21.5823 12.5405 21.5823ZM12.1325 4.08153C12.0509 4.08153 11.9693 4.08153 11.8877 4.08633C8.79172 4.20633 6.24292 6.72632 6.08452 9.81752C5.99812 11.5263 6.60772 13.1391 7.79812 14.3583C8.55172 15.1311 8.96452 16.1055 8.96452 17.1135V17.7519C8.96452 19.2687 10.1981 20.5071 11.7197 20.5071H12.5405C14.0573 20.5071 15.2957 19.2735 15.2957 17.7519V17.1135C15.2957 16.1055 15.7085 15.1311 16.4573 14.3679C17.5709 13.2303 18.1853 11.7279 18.1853 10.1343C18.1853 8.47352 17.5277 6.92312 16.3277 5.77112C15.1901 4.67673 13.7069 4.08153 12.1325 4.08153Z" fill="#EEEEEE"/>
<path d="M8.91651 12.304C8.97891 12.304 9.04611 12.3184 9.10371 12.352L9.93411 12.7888C9.98691 12.8176 10.0445 12.8128 10.0877 12.7792C10.1357 12.7456 10.1549 12.6928 10.1453 12.6352L9.98691 11.7136C9.96291 11.584 10.0061 11.4544 10.1021 11.3584L10.7741 10.7056C10.8173 10.6672 10.8269 10.6096 10.8125 10.5568C10.7933 10.504 10.7501 10.4656 10.6925 10.456L9.76611 10.3216C9.63651 10.3024 9.52611 10.2208 9.46371 10.1056L9.05091 9.26556C9.02691 9.21276 8.97411 9.18396 8.91651 9.18396C8.85891 9.18396 8.81091 9.21276 8.78211 9.26556L8.36931 10.1056C8.31171 10.2256 8.20131 10.3024 8.07171 10.3216L7.14531 10.456C7.08771 10.4656 7.04451 10.504 7.02531 10.5568C7.00611 10.6096 7.02051 10.6672 7.06371 10.7056L7.73571 11.3584C7.83171 11.4496 7.87011 11.584 7.85091 11.7136L7.69251 12.6352C7.68291 12.6928 7.70691 12.7456 7.75011 12.7792C7.79811 12.8128 7.85571 12.8176 7.90371 12.7888L8.73411 12.352C8.78691 12.3184 8.85411 12.304 8.91651 12.304Z" fill="#EEEEEE"/>
<path d="M12.9005 8.92957C12.9773 8.92957 13.0541 8.94877 13.1261 8.98717L14.1341 9.51517C14.1965 9.54877 14.2685 9.54397 14.3213 9.50077C14.3789 9.45757 14.4029 9.39517 14.3933 9.32317L14.2013 8.19997C14.1725 8.04157 14.2253 7.88317 14.3405 7.77277L15.1565 6.97597C15.2045 6.92797 15.2237 6.86077 15.1997 6.79357C15.1805 6.72637 15.1229 6.68317 15.0557 6.67357L13.9277 6.51037C13.7693 6.48637 13.6349 6.39037 13.5629 6.24637L13.0589 5.22397C13.0301 5.16157 12.9677 5.12317 12.9005 5.12317C12.8285 5.12317 12.7709 5.16157 12.7421 5.22397L12.2381 6.24637C12.1661 6.39037 12.0317 6.48637 11.8733 6.51037L10.7453 6.67357C10.6781 6.68317 10.6205 6.73117 10.6013 6.79357C10.5821 6.86077 10.5965 6.92797 10.6445 6.97597L11.4605 7.77277C11.5757 7.88317 11.6285 8.04637 11.5997 8.19997L11.4077 9.32317C11.3981 9.39037 11.4221 9.45757 11.4797 9.50077C11.5373 9.54397 11.6045 9.54877 11.6669 9.51517L12.6749 8.98717C12.7469 8.94877 12.8237 8.92957 12.9005 8.92957Z" fill="#EEEEEE"/>
</svg>
