<svg width="24" height="24" viewBox="0 0 24 24" fill="none" xmlns="http://www.w3.org/2000/svg">
<path d="M19.2997 21.5083H4.83392C4.19408 21.5083 3.61136 21.1834 3.27536 20.6395C2.93888 20.0952 2.90912 19.429 3.1952 18.8568L10.7014 3.84384L11.1954 4.09056L10.7014 3.84384C10.9616 3.32352 11.4848 3 12.067 3C12.6493 3 13.1725 3.32352 13.4326 3.84384L20.9389 18.8563C21.225 19.4285 21.1947 20.0952 20.8587 20.639C20.5222 21.1834 19.9395 21.5083 19.2997 21.5083ZM12.067 4.10352C11.9883 4.10352 11.7944 4.12608 11.6888 4.33728L4.18256 19.3498C4.06736 19.5806 4.07888 19.8389 4.21424 20.0587C4.35008 20.2781 4.57568 20.4043 4.83392 20.4043H19.2997C19.5579 20.4043 19.7835 20.2786 19.9194 20.0587C20.0552 19.8389 20.0667 19.5806 19.951 19.3498L12.4448 4.33728C12.3397 4.12656 12.1453 4.10352 12.067 4.10352Z" fill="#EEEEEE"/>
<path d="M12.9781 9.36044V15.5092C12.9781 15.6004 12.8999 15.6782 12.8091 15.6782H11.3437C11.2525 15.6782 11.1747 15.6086 11.1747 15.5092V9.36044C11.1747 9.26924 11.253 9.1958 11.3437 9.1958H12.8091C12.8999 9.1958 12.9781 9.26924 12.9781 9.36044ZM12.9781 16.8052V17.9064C12.9781 17.9976 12.8999 18.0753 12.8091 18.0753H11.3437C11.2525 18.0753 11.1747 17.9971 11.1747 17.9064V16.8052C11.1747 16.714 11.253 16.6363 11.3437 16.6363H12.8091C12.8999 16.6363 12.9781 16.7145 12.9781 16.8052Z" fill="#EEEEEE"/>
</svg>
