<svg width="222" height="188" viewBox="0 0 222 188" fill="none" xmlns="http://www.w3.org/2000/svg">
<g clip-path="url(#clip0_442_769)">
<path d="M180.801 90.7357C180.801 93.3774 180.691 95.9924 180.469 98.5805C180.295 100.601 180.057 102.603 179.756 104.587C179.436 106.688 179.044 108.763 178.579 110.813V110.816C178.275 112.165 177.942 113.503 177.579 114.83C176.524 118.689 175.213 122.471 173.654 126.153C173.315 126.954 172.965 127.75 172.604 128.54C171.238 131.532 169.709 134.446 168.023 137.268C163.295 145.195 157.393 152.354 150.52 158.499C149.776 159.163 149.021 159.816 148.257 160.458C132.029 174.065 111.546 181.504 90.4007 181.471C40.4732 181.471 0 140.848 0 90.7357C0 40.6231 40.4732 -9.68736e-06 90.4007 -9.68736e-06C110.818 -0.0323227 130.64 6.90439 146.612 19.6712C147.36 20.2666 148.099 20.8755 148.829 21.4977C152.391 24.5293 155.714 27.8313 158.771 31.3747H158.773C173.01 47.8466 180.834 68.9294 180.801 90.7357Z" fill="#F2F2F2"/>
<path d="M26.6862 106.409C18.0744 101.265 11.5746 91.6503 12.4185 81.6274C20.2917 89.1907 30.5766 93.7151 41.4534 94.4C45.649 94.6489 50.3415 94.4872 53.43 97.3485C55.3517 99.1289 56.2463 101.809 56.393 104.43C56.5397 107.051 56.0167 109.658 55.4963 112.23L55.6754 112.86C45.6539 112.898 35.2979 111.554 26.6862 106.409Z" fill="#E6E6E6"/>
<path d="M12.6283 81.6166C16.0788 89.1879 21.8184 95.4755 29.0319 99.5862C30.5826 100.457 32.2313 101.206 33.9832 101.553C35.6935 101.878 37.4594 101.738 39.0973 101.146C40.6356 100.626 42.149 99.9141 43.7865 99.7778C45.5126 99.6342 47.1106 100.303 48.3661 101.473C49.9023 102.906 50.834 104.807 51.6808 106.697C52.621 108.797 53.5645 110.992 55.3671 112.502C55.5856 112.685 55.29 113.014 55.0719 112.832C51.9356 110.205 51.4237 105.806 48.9166 102.713C47.7468 101.269 46.1365 100.171 44.2235 100.2C42.5506 100.225 40.9894 100.958 39.4364 101.498C37.8057 102.066 36.1722 102.333 34.4507 102.083C32.6897 101.827 31.0084 101.142 29.4423 100.315C25.9048 98.4112 22.6875 95.9615 19.9083 93.055C16.718 89.7556 14.1135 85.9327 12.2076 81.7518C12.0897 81.493 12.5112 81.3595 12.6283 81.6166H12.6283Z" fill="white"/>
<path d="M26.6316 98.3998C25.7802 99.521 24.5594 100.302 23.1873 100.603C21.8152 100.904 20.3812 100.706 19.1413 100.044C18.8909 99.9087 19.0879 99.5118 19.3386 99.6468C20.4921 100.266 21.8279 100.45 23.105 100.167C24.3821 99.8841 25.5164 99.1522 26.3031 98.1035C26.4743 97.8758 26.8018 98.1735 26.6316 98.3998L26.6316 98.3998Z" fill="white"/>
<path d="M38.3522 101.513C37.9939 98.6542 36.575 96.0357 34.3786 94.1798C34.1608 93.9962 34.4563 93.6666 34.6738 93.8501C36.9559 95.7856 38.4269 98.5136 38.7933 101.49C38.828 101.773 38.3867 101.796 38.3522 101.513V101.513Z" fill="white"/>
<path d="M17.2661 89.5476C17.6856 89.1827 18.0082 88.7189 18.205 88.198C18.4018 87.677 18.4666 87.1151 18.3936 86.5628C18.3553 86.2797 18.7966 86.2579 18.8347 86.5392C18.9125 87.1498 18.8402 87.7702 18.624 88.3463C18.4079 88.9224 18.0544 89.4365 17.5946 89.8439C17.5545 89.8859 17.4999 89.9111 17.442 89.9142C17.384 89.9173 17.3271 89.8981 17.2827 89.8606C17.2394 89.8211 17.2134 89.7661 17.2103 89.7075C17.2072 89.6489 17.2272 89.5914 17.2661 89.5476V89.5476Z" fill="white"/>
<path d="M40.2938 62.2095C40.3227 62.3856 40.3516 62.5617 40.3839 62.7395C40.7849 65.105 41.3767 67.4338 42.1535 69.7031C42.2108 69.8795 42.2715 70.0574 42.3337 70.2318C44.2632 75.679 47.1835 80.7193 50.9462 85.0964C52.445 86.8368 54.0736 88.4603 55.8179 89.9526C58.2268 92.0136 61.0022 94.0557 62.5467 96.7167C62.7109 96.9925 62.858 97.2783 62.987 97.5723L56.4272 112.592C56.3952 112.619 56.3666 112.647 56.3345 112.674L56.0999 113.285C56.0046 113.215 55.9073 113.139 55.812 113.069C55.7565 113.028 55.7025 112.984 55.647 112.943C55.6105 112.915 55.5741 112.886 55.5395 112.863C55.5273 112.854 55.5152 112.844 55.5064 112.836C55.4719 112.813 55.4422 112.788 55.4111 112.766C54.8658 112.346 54.3225 111.922 53.7812 111.493C53.7778 111.492 53.7778 111.491 53.7759 111.487C49.6597 108.209 45.7801 104.557 42.576 100.431C42.4796 100.307 42.3798 100.181 42.2864 100.05C40.8524 98.182 39.573 96.1994 38.4608 94.1221C37.8554 92.9827 37.3079 91.8133 36.8204 90.6183C35.5666 87.5282 34.8049 84.2593 34.5631 80.9316C34.0821 74.2978 35.7203 67.5835 39.9657 62.588C40.0744 62.4603 40.1817 62.3357 40.2938 62.2095Z" fill="#E6E6E6"/>
<path d="M40.4691 62.3269C38.6825 70.4572 39.4937 78.9459 42.7874 86.5872C43.503 88.22 44.3705 89.8137 45.5611 91.1496C46.7316 92.4428 48.2258 93.3978 49.8884 93.9153C51.4289 94.4292 53.064 94.7757 54.4533 95.6564C55.9176 96.5848 56.7926 98.0841 57.0928 99.7776C57.4601 101.85 57.0638 103.93 56.6057 105.952C56.0972 108.196 55.5335 110.519 56.0673 112.814C56.1319 113.092 55.6983 113.177 55.6337 112.899C54.7051 108.906 56.935 105.085 56.7888 101.1C56.7206 99.2405 56.0937 97.3904 54.5489 96.2575C53.1981 95.2668 51.5122 94.908 49.9479 94.4013C48.3054 93.8692 46.8411 93.095 45.6164 91.8553C44.3636 90.587 43.4322 89.024 42.6782 87.4167C40.9955 83.7594 39.8961 79.8592 39.4204 75.859C38.8523 71.2967 39.066 66.6705 40.0521 62.1805C40.1132 61.9026 40.5299 62.0508 40.4691 62.3269Z" fill="white"/>
<path d="M41.5824 84.1894C40.2301 84.57 38.787 84.4558 37.5109 83.867C36.2347 83.2783 35.2086 82.2534 34.6158 80.9754C34.4968 80.7164 34.8922 80.5186 35.0114 80.7779C35.5612 81.969 36.5171 82.9236 37.7066 83.4694C38.896 84.0152 40.2407 84.1162 41.4979 83.7543C41.7712 83.6759 41.8542 84.1115 41.5824 84.1894H41.5824Z" fill="white"/>
<path d="M49.0731 93.7581C50.502 91.2587 50.9399 88.3105 50.2993 85.5014C50.2356 85.2231 50.6692 85.1386 50.7328 85.4165C51.394 88.3409 50.9321 91.4081 49.4394 94.0057C49.297 94.2532 48.9314 94.0042 49.0731 93.7581Z" fill="white"/>
<path d="M39.4147 71.4616C39.9685 71.4238 40.5043 71.2485 40.9739 70.9515C41.4436 70.6544 41.8324 70.245 42.1054 69.7599C42.2446 69.5107 42.6101 69.7599 42.4717 70.0075C42.1676 70.5421 41.7377 70.9938 41.2195 71.3231C40.7014 71.6524 40.1107 71.8494 39.4993 71.8968C39.442 71.9061 39.3834 71.8932 39.3352 71.8606C39.2871 71.8281 39.2531 71.7784 39.2402 71.7216C39.2293 71.664 39.2415 71.6043 39.2742 71.5556C39.3069 71.5069 39.3574 71.4732 39.4147 71.4616V71.4616Z" fill="white"/>
<path d="M62.6213 21.0299L73.686 151.035L51.5566 152.705V22.684C54.1936 20.9326 57.9788 20.6586 62.6213 21.0299Z" fill="#CCCCCC"/>
<path d="M117.239 21.0299L106.174 151.035L128.303 152.705V22.684C125.666 20.9326 121.881 20.6586 117.239 21.0299Z" fill="#CCCCCC"/>
<path d="M124.989 158.079H54.6345C53.5064 158.077 52.4248 157.627 51.6271 156.826C50.8294 156.026 50.3807 154.94 50.3794 153.808V24.5919C50.3807 23.4596 50.8294 22.3741 51.6271 21.5734C52.4248 20.7727 53.5064 20.3223 54.6345 20.321H124.989C126.118 20.3223 127.199 20.7727 127.997 21.5734C128.795 22.3741 129.243 23.4596 129.245 24.5919V153.808C129.243 154.94 128.795 156.026 127.997 156.826C127.199 157.627 126.118 158.077 124.989 158.079ZM54.6345 21.7388C53.8809 21.7396 53.1583 22.0405 52.6254 22.5754C52.0925 23.1103 51.7927 23.8355 51.7919 24.5919V153.808C51.7927 154.564 52.0925 155.289 52.6254 155.824C53.1583 156.359 53.8809 156.66 54.6345 156.661H124.989C125.743 156.66 126.466 156.359 126.999 155.824C127.532 155.289 127.831 154.564 127.832 153.808V24.5919C127.831 23.8355 127.532 23.1103 126.999 22.5754C126.466 22.0405 125.743 21.7396 124.989 21.7388L54.6345 21.7388Z" fill="#CCCCCC"/>
<path d="M128.539 41.8235H51.0859V43.2412H128.539V41.8235Z" fill="#CCCCCC"/>
<path d="M128.539 65.4526H51.0859V66.8703H128.539V65.4526Z" fill="#CCCCCC"/>
<path d="M76.2201 21.0299H74.8076V85.5373H76.2201V21.0299Z" fill="#CCCCCC"/>
<path d="M104.817 21.0299H103.404V85.5373H104.817V21.0299Z" fill="#CCCCCC"/>
<path d="M137.367 161.977H44.6117C42.9259 161.977 41.3091 161.305 40.1171 160.109C38.925 158.912 38.2554 157.29 38.2554 155.598C38.2554 153.906 38.925 152.283 40.1171 151.086C41.3091 149.89 42.9259 149.218 44.6117 149.218H137.367C139.052 149.218 140.669 149.89 141.861 151.086C143.053 152.283 143.723 153.906 143.723 155.598C143.723 157.29 143.053 158.912 141.861 160.109C140.669 161.305 139.052 161.977 137.367 161.977Z" fill="#CCCCCC"/>
<path d="M128.539 82.2292H51.5566V86.9551H128.539V82.2292Z" fill="#CCCCCC"/>
<path d="M76.4391 97.2693L76.3414 97.222C71.0936 94.6775 64.2214 94.6798 54.0583 97.2303L53.9498 97.2575L53.9172 97.15C52.8421 93.6117 51.6242 89.6043 53.9122 87.6326C53.9443 81.8469 59.0006 77.1489 65.2112 77.1489C71.4206 77.1489 76.4763 81.8445 76.5102 87.6287C79.9137 90.2406 78.2917 94.1002 76.4941 97.1754L76.4391 97.2693Z" fill="#2F2E41"/>
<path d="M108.694 84.8805C108.6 85.3493 108.405 85.7917 108.122 86.1766C107.839 86.5614 107.475 86.8793 107.057 87.1079C106.638 87.3365 106.175 87.4702 105.699 87.4996C105.224 87.529 104.748 87.4534 104.304 87.2781L85.7587 105.984L84.104 100.176L102.523 82.8048C102.866 82.0768 103.463 81.5003 104.201 81.1846C104.939 80.8688 105.767 80.8358 106.527 81.0916C107.288 81.3475 107.929 81.8745 108.328 82.5728C108.727 83.2711 108.858 84.0922 108.694 84.8805L108.694 84.8805Z" fill="#FFB6B6"/>
<path d="M62.8587 102.889C62.8587 102.889 61.1761 106.716 65.3279 109.076C69.4796 111.436 83.9901 108.175 86.3446 107.72C88.6991 107.265 97.4929 94.056 97.4929 94.056L96.2494 87.5781L84.5868 97.7398L62.8587 102.889Z" fill="#2C2C2C"/>
<path d="M59.7961 124.053L60.0315 128.542C60.0315 128.542 59.3367 132.519 59.9081 133.377C60.4753 134.231 75.952 134.339 75.952 134.339C75.952 134.339 76.9746 128.806 77.8554 123.963L59.7961 124.053Z" fill="#FFB6B6"/>
<path d="M104.294 183.414L107.529 182.758L106.603 169.641L101.828 170.609L104.294 183.414Z" fill="#FFB6B6"/>
<path d="M108.928 166.344L111.936 164.986L108.034 152.435L103.595 154.439L108.928 166.344Z" fill="#FFB6B6"/>
<path d="M111.548 159.272L105.885 162.491L91.9168 139.962C82.1113 146.593 72.5228 149.768 62.8566 151.462C59.5885 152.047 56.2566 151.751 55.6291 148.412C55.5998 148.256 55.5764 148.099 55.559 147.941C55.1731 144.294 59.6925 139.62 60.267 135.158L72.636 134.413L74.1613 136.376L88.4656 127.549C91.3423 125.774 95.1258 126.734 96.9164 129.694C97.0109 129.85 97.0987 130.01 97.1797 130.174L111.548 159.272Z" fill="#2F2E41"/>
<path d="M108.082 174.427L101.602 175.031L89.851 150.911C78.1989 152.922 67.2061 153.566 57.6979 151.133C54.4786 150.321 52.5108 146.984 53.3026 143.681C53.3396 143.527 53.3824 143.374 53.431 143.223C54.5689 139.738 57.5477 137.272 59.8946 133.439L77.037 133.701L75.1223 140.332L91.775 138.169C95.1239 137.734 98.1824 140.167 98.6063 143.603C98.6287 143.784 98.6433 143.967 98.6502 144.15L108.082 174.427Z" fill="#2F2E41"/>
<path d="M66.4896 93.84C70.334 93.84 73.4504 90.712 73.4504 86.8534C73.4504 82.9948 70.334 79.8668 66.4896 79.8668C62.6453 79.8668 59.5288 82.9948 59.5288 86.8534C59.5288 90.712 62.6453 93.84 66.4896 93.84Z" fill="#FFB6B6"/>
<path d="M62.4091 96.3621L68.7915 97.1158C69.0606 97.1476 69.3132 97.2628 69.514 97.4455C69.7148 97.6282 69.8538 97.8692 69.9116 98.1349L70.9266 102.797L77.2539 110.276C77.2539 110.276 79.5259 114.551 78.6739 119.397C77.8219 124.243 77.4475 127.844 77.4475 127.844C77.4475 127.844 60.4747 134.232 59.9067 133.376C59.3387 132.521 59.1544 128.637 59.1544 128.637L56.8823 103.266C56.8823 103.266 59.4384 98.9906 60.8584 98.9906C61.7749 98.9596 61.6573 96.8892 62.4091 96.3621Z" fill="#2C2C2C"/>
<path d="M77.6201 129.404C78.5151 129.404 79.2407 128.53 79.2407 127.452C79.2407 126.374 78.5151 125.5 77.6201 125.5C76.7251 125.5 75.9995 126.374 75.9995 127.452C75.9995 128.53 76.7251 129.404 77.6201 129.404Z" fill="#2C2C2C"/>
<path d="M102.688 180.037L107.621 177.555L108.551 179.732L114.788 180.998C115.096 181.06 115.377 181.22 115.588 181.454C115.799 181.687 115.93 181.982 115.963 182.296C115.995 182.61 115.926 182.926 115.767 183.198C115.608 183.47 115.366 183.684 115.077 183.808L109.05 186.401L107.092 184.694L107.606 187.022L105.333 188L102.688 180.037Z" fill="#2F2E41"/>
<path d="M107.517 165.299L112.405 162.731L113.373 164.892L119.632 166.047C119.941 166.104 120.224 166.259 120.439 166.488C120.655 166.718 120.791 167.011 120.829 167.324C120.867 167.638 120.804 167.955 120.649 168.229C120.495 168.504 120.257 168.722 119.97 168.851L113.989 171.55L112.001 169.879L112.556 172.197L110.301 173.215L107.517 165.299Z" fill="#2F2E41"/>
<path d="M62.5126 84.6619C60.6736 84.6649 58.8788 84.0965 57.3745 83.0348L57.3242 82.9995V82.938C57.3262 81.1526 58.0338 79.4409 59.2916 78.1784C60.5494 76.9159 62.2548 76.2058 64.0337 76.2037H66.8587C68.6375 76.2058 70.3429 76.9159 71.6007 78.1784C72.8586 79.4409 73.5661 81.1526 73.5681 82.938C73.5662 83.3467 73.4055 83.7384 73.1201 84.0299C72.8347 84.3213 72.4472 84.4894 72.0402 84.4984L62.6714 84.6605C62.6185 84.6614 62.5654 84.6619 62.5126 84.6619Z" fill="#2F2E41"/>
<path d="M74.039 81.6447C74.9398 81.1227 75.0903 79.6918 74.3752 78.4486C73.6601 77.2054 72.3502 76.6208 71.4494 77.1428C70.5486 77.6648 70.3981 79.0957 71.1132 80.3389C71.8283 81.5821 73.1382 82.1667 74.039 81.6447Z" fill="#2F2E41"/>
<path d="M59.9511 80.2578C60.9624 79.2428 61.186 77.8215 60.4505 77.0833C59.715 76.345 58.299 76.5695 57.2877 77.5845C56.2764 78.5996 56.0528 80.0209 56.7883 80.7591C57.5238 81.4973 58.9398 81.2729 59.9511 80.2578Z" fill="#2F2E41"/>
<path d="M121.556 144.137H114.608C114.451 144.137 114.296 144.171 114.154 144.237C114.012 144.303 113.886 144.4 113.784 144.52C113.528 144.472 113.264 144.487 113.015 144.562C112.765 144.637 112.537 144.77 112.348 144.95C112.16 145.131 112.017 145.354 111.931 145.601C111.845 145.848 111.819 146.112 111.854 146.371C111.89 146.63 111.986 146.877 112.135 147.091C112.283 147.306 112.481 147.482 112.711 147.605C112.941 147.728 113.196 147.795 113.457 147.8C113.717 147.804 113.975 147.747 114.209 147.632L114.786 149.512C114.854 149.735 114.992 149.929 115.178 150.068C115.365 150.206 115.591 150.281 115.823 150.281H120.341C120.573 150.281 120.799 150.206 120.986 150.068C121.172 149.929 121.31 149.734 121.378 149.512L122.594 145.548C122.644 145.385 122.655 145.212 122.626 145.044C122.598 144.876 122.53 144.717 122.429 144.58C122.328 144.443 122.197 144.331 122.045 144.254C121.893 144.177 121.726 144.137 121.556 144.137ZM113.491 147.327C113.179 147.327 112.88 147.203 112.659 146.981C112.438 146.76 112.314 146.459 112.314 146.146C112.314 145.833 112.438 145.532 112.659 145.311C112.88 145.089 113.179 144.964 113.491 144.964C113.513 144.964 113.533 144.97 113.554 144.971C113.507 145.161 113.513 145.36 113.57 145.548L114.068 147.17C113.892 147.272 113.694 147.326 113.491 147.327Z" fill="#3F3D56"/>
<path d="M90.5308 139.008C90.0563 139.052 89.578 138.991 89.1295 138.83C88.6811 138.668 88.2733 138.41 87.9351 138.073C87.5968 137.736 87.3363 137.329 87.1718 136.88C87.0073 136.431 86.9428 135.952 86.9829 135.475L63.8086 123.011L68.8774 119.753L90.7413 132.479C91.5345 132.6 92.2559 133.009 92.769 133.628C93.2821 134.247 93.5512 135.033 93.5252 135.838C93.4993 136.642 93.1801 137.41 92.6282 137.994C92.0763 138.578 91.33 138.939 90.5308 139.008Z" fill="#FFB6B6"/>
<path d="M60.1924 100.104C60.1924 100.104 56.057 99.584 54.9956 104.253C53.9342 108.922 61.2097 121.939 62.3197 124.072C63.4298 126.205 78.5596 130.871 78.5596 130.871L84.3855 127.816L71.3408 119.518L60.1924 100.104Z" fill="#2C2C2C"/>
<path d="M89.3416 80.8115H90.7541C91.4409 80.8115 92.0995 81.0853 92.5852 81.5728C93.0708 82.0602 93.3437 82.7213 93.3437 83.4107H86.752C86.752 82.7213 87.0248 82.0602 87.5104 81.5728C87.9961 81.0853 88.6548 80.8115 89.3416 80.8115Z" fill="#CCCCCC"/>
<path d="M44.5508 32.3165C52.2794 32.3165 58.5446 26.0281 58.5446 18.2709C58.5446 10.5138 52.2794 4.22534 44.5508 4.22534C36.8223 4.22534 30.5571 10.5138 30.5571 18.2709C30.5571 26.0281 36.8223 32.3165 44.5508 32.3165Z" fill="#FF6584"/>
<path d="M87.3965 17.5389C83.6931 13.6395 79.392 10.0822 74.3002 8.20246C72.8819 7.67661 71.4113 7.30568 69.9138 7.09607C69.9017 7.09442 69.8904 7.09686 69.8784 7.09589C69.854 7.08959 69.8293 7.08472 69.8044 7.08131C67.71 6.81351 65.5841 6.94233 63.537 7.46109C62.536 7.71323 61.5594 8.0547 60.6189 8.48143C59.6751 8.94357 58.7606 9.46375 57.8807 10.039C56.0181 11.158 53.9675 11.9259 51.8298 12.3047C50.7568 12.4986 49.67 12.6056 48.5799 12.6248C47.6341 12.6439 46.7421 12.6769 45.846 13.0198C44.8887 13.3811 44.0288 13.962 43.3349 14.7161C42.6411 15.4702 42.1324 16.3766 41.8495 17.3631C41.8277 17.4509 41.8343 17.5435 41.8683 17.6273C41.9023 17.7112 41.962 17.782 42.0387 17.8296C42.2811 18.0039 42.5174 18.2016 42.7721 18.3568C42.9987 18.4609 43.2407 18.5272 43.4885 18.553C43.8934 18.6387 44.2989 18.722 44.7049 18.8027C46.2004 19.1001 47.7022 19.3634 49.2102 19.5926C52.2615 20.0562 55.3294 20.3828 58.4137 20.5723C64.5925 20.948 70.7925 20.7609 76.9376 20.0135C80.3912 19.5937 83.8214 18.9982 87.2149 18.2294C87.2836 18.2092 87.3459 18.1716 87.3959 18.1201C87.4458 18.0686 87.4817 18.0051 87.5 17.9356C87.5182 17.8661 87.5183 17.7931 87.5002 17.7236C87.4821 17.6541 87.4463 17.5905 87.3965 17.5389Z" fill="#E6E6E6"/>
<path d="M45.2153 26.9299C43.797 26.4041 42.3263 26.0332 40.8288 25.8235C40.8168 25.8219 40.8054 25.8243 40.7934 25.8234C40.7691 25.8171 40.7443 25.8122 40.7194 25.8088C38.625 25.541 36.4992 25.6698 34.4521 26.1886C33.451 26.4407 32.4744 26.7822 31.5339 27.2089C30.5901 27.671 29.6756 28.1912 28.7957 28.7665C26.9332 29.8855 24.8825 30.6534 22.7448 31.0322C21.6718 31.2261 20.5851 31.3331 19.495 31.3523C18.5491 31.3714 17.6571 31.4043 16.761 31.7473C15.8037 32.1086 14.9439 32.6895 14.25 33.4436C13.5561 34.1977 13.0474 35.1041 12.7646 36.0906C12.7428 36.1784 12.7493 36.2709 12.7833 36.3548C12.8173 36.4386 12.877 36.5095 12.9537 36.5571C13.1961 36.7313 13.4325 36.9291 13.6871 37.0843C13.9137 37.1884 14.1557 37.2546 14.4036 37.2804C14.8085 37.3662 15.2139 37.4494 15.6199 37.5302C17.1155 37.8276 18.6172 38.0909 20.1252 38.32C23.1766 38.7837 26.2444 39.1102 29.3287 39.2998C35.5075 39.6754 41.7075 39.4884 47.8527 38.741C51.3063 38.3211 54.7364 37.7256 58.1299 36.9568C58.1986 36.9367 58.261 36.899 58.3109 36.8476C58.3609 36.7961 58.3967 36.7325 58.415 36.6631C58.4333 36.5936 58.4334 36.5206 58.4152 36.4511C58.3971 36.3816 58.3614 36.3179 58.3116 36.2664C54.6081 32.367 50.307 28.8097 45.2153 26.9299Z" fill="#E6E6E6"/>
<path d="M146.13 131.637L135.369 117.448L126.877 122.267L144.871 143.713L146.13 131.637Z" fill="#3F3D56"/>
<path d="M170.918 108.571C171.157 114.517 172.075 120.417 173.654 126.153C173.315 126.954 172.965 127.75 172.604 128.54C171.238 131.532 169.709 134.446 168.023 137.268C163.295 145.195 157.393 152.354 150.519 158.499C149.776 159.163 149.021 159.816 148.257 160.458C143.899 154.428 141.548 147.774 140.618 140.926C140.5 140.057 140.403 139.178 140.331 138.303V138.299C140.152 136.174 140.095 134.041 140.159 131.909C140.161 131.739 140.166 131.567 140.173 131.394C140.255 129.116 140.46 126.834 140.768 124.573V124.57C140.804 124.31 140.839 124.05 140.879 123.79C140.992 123.011 141.119 122.231 141.258 121.456C142.066 116.986 143.195 112.58 144.634 108.273V108.271C144.674 108.146 144.714 108.023 144.759 107.9C144.914 107.432 145.072 106.969 145.234 106.506C145.244 106.469 145.257 106.434 145.272 106.399C145.481 105.794 145.696 105.194 145.915 104.599C145.974 104.433 146.035 104.268 146.098 104.103C146.345 103.439 146.597 102.779 146.854 102.13C146.934 101.922 147.016 101.714 147.099 101.508C147.162 101.35 147.224 101.192 147.289 101.036V101.033C147.664 100.105 148.043 99.1941 148.427 98.3017C149.502 95.7923 150.609 93.4318 151.687 91.2555L151.689 91.2532C156.165 82.2434 160.233 76.3928 160.233 76.3928L175.509 81.3549C173.687 84.5992 172.277 89.3841 171.505 95.0291C170.91 99.5159 170.714 104.047 170.918 108.569L170.918 108.571Z" fill="#3F3D56"/>
<path d="M145.529 107.127C145.439 106.917 145.338 106.711 145.235 106.506C144.697 105.462 144.006 104.506 143.184 103.67C143.062 103.545 142.934 103.42 142.803 103.302C141.385 101.991 139.66 101.06 137.789 100.595C135.917 100.13 133.959 100.146 132.096 100.641L132.086 100.646L132.016 100.665L132.032 100.745C132.103 101.119 132.205 101.487 132.338 101.844C132.374 101.941 132.414 102.033 132.454 102.125C132.47 102.167 132.491 102.205 132.51 102.248C132.51 102.248 132.508 102.25 132.512 102.25C132.512 102.253 132.515 102.255 132.515 102.257C132.56 102.345 132.602 102.434 132.649 102.52C132.552 102.427 132.461 102.333 132.371 102.236C132.284 102.146 132.204 102.052 132.124 101.957C131.85 101.636 131.602 101.293 131.382 100.932L131.345 100.868L131.279 100.894C130.391 101.203 129.543 101.619 128.755 102.134L128.67 102.191C128.069 102.587 127.391 102.852 126.681 102.969C125.971 103.085 125.244 103.051 124.548 102.867C123.451 102.583 122.307 102.531 121.189 102.715C120.071 102.898 119.003 103.313 118.053 103.933C117.424 104.344 116.855 104.842 116.363 105.412C116.32 105.461 116.278 105.513 116.236 105.563C116.146 105.672 116.061 105.783 115.979 105.896C115.094 107.083 114.551 108.492 114.409 109.967L114.404 110.022L114.449 110.053C115.245 110.601 116.146 110.977 117.095 111.158C116.499 111.242 115.896 111.257 115.296 111.203H115.294C115.022 111.181 114.752 111.143 114.484 111.09L114.435 111.08H114.432L114.371 111.069L114.381 111.182C114.451 112.626 114.903 114.025 115.692 115.234L115.715 115.267C115.724 115.28 115.732 115.292 115.739 115.305C116.073 115.818 116.351 116.365 116.568 116.938C117.118 118.361 117.239 119.915 116.916 121.406C116.55 123.002 116.672 124.67 117.265 126.195C117.858 127.72 118.895 129.03 120.24 129.955C121.422 130.771 122.799 131.257 124.23 131.361C124.426 131.378 124.624 131.387 124.821 131.387C125.953 131.391 127.074 131.156 128.11 130.7L128.148 130.685L128.157 130.643C128.356 129.997 128.637 129.38 128.991 128.805C128.875 129.258 128.816 129.724 128.816 130.192V130.348L128.951 130.27C129.066 130.201 129.184 130.128 129.29 130.059C129.926 129.642 130.501 129.14 131.001 128.566C131.196 128.339 131.394 128.119 131.601 127.9L131.604 127.897C132.006 127.467 132.432 127.047 132.875 126.645C133.817 125.796 134.824 125.024 135.888 124.336C136.952 123.651 138.064 123.044 139.215 122.522H139.217C139.347 122.46 139.479 122.401 139.608 122.344C140.181 122.094 140.733 121.797 141.258 121.456C141.277 121.444 141.294 121.435 141.31 121.423C143.586 119.927 145.259 117.669 146.032 115.052C146.804 112.434 146.626 109.626 145.529 107.127L145.529 107.127Z" fill="#2C2C2C"/>
<path opacity="0.15" d="M117.304 124.761C117.24 125.049 117.191 125.339 117.158 125.632C116.72 124.241 116.656 122.76 116.974 121.337C117.023 121.119 117.06 120.899 117.088 120.677C117.523 121.995 117.598 123.405 117.304 124.761Z" fill="black"/>
<path opacity="0.15" d="M117.482 114.511C116.784 114.609 116.077 114.612 115.379 114.522C115.196 114.175 115.038 113.816 114.907 113.448C115.684 113.974 116.56 114.336 117.482 114.511Z" fill="black"/>
<path opacity="0.15" d="M115.323 111.127C115.066 111.788 114.895 112.479 114.815 113.184C114.6 112.513 114.473 111.816 114.437 111.112L114.432 110.999L114.543 111.02C114.801 111.069 115.062 111.105 115.323 111.127Z" fill="black"/>
<path opacity="0.15" d="M118.114 103.862C119.062 103.242 120.13 102.826 121.247 102.643C122.365 102.459 123.509 102.511 124.605 102.795C125.301 102.98 126.028 103.015 126.739 102.899C127.45 102.783 128.128 102.518 128.729 102.121L128.814 102.064C129.602 101.548 130.449 101.131 131.337 100.821L131.405 100.797L131.442 100.859C131.793 101.442 132.218 101.976 132.707 102.448C132.41 101.893 132.202 101.294 132.091 100.673L132.075 100.592L132.155 100.57C133.903 100.106 135.736 100.063 137.503 100.445C139.271 100.827 140.924 101.623 142.326 102.768C143.729 103.913 144.842 105.374 145.575 107.033C146.308 108.692 146.64 110.502 146.543 112.314C146.172 110.837 145.513 109.448 144.604 108.228C143.694 107.008 142.553 105.981 141.245 105.208C139.938 104.434 138.49 103.928 136.986 103.72C135.483 103.512 133.953 103.605 132.485 103.995L132.405 104.016L132.421 104.098C132.532 104.718 132.74 105.317 133.037 105.873C132.548 105.4 132.123 104.866 131.772 104.284L131.734 104.222L131.667 104.245C130.779 104.555 129.931 104.973 129.144 105.489L129.059 105.545C128.458 105.942 127.779 106.207 127.069 106.324C126.358 106.44 125.631 106.405 124.935 106.22C123.112 105.745 121.182 105.92 119.474 106.714C117.765 107.508 116.384 108.872 115.565 110.574C115.201 110.398 114.848 110.2 114.508 109.981L114.461 109.951L114.467 109.897C114.584 108.681 114.973 107.507 115.604 106.462C116.235 105.417 117.093 104.529 118.114 103.862Z" fill="black"/>
<path d="M205.633 43.487L205.41 43.3381L205.247 43.5508C203.99 45.1395 202.99 46.9169 202.283 48.8177C202.381 46.6279 202.762 44.4602 203.418 42.3693L203.489 42.1496L203.286 42.0338C200.652 40.5367 197.845 39.3687 194.929 38.5556L194.611 38.4705C192.376 37.8549 190.295 36.7733 188.504 35.2962C186.713 33.819 185.252 31.9796 184.217 29.8979C181.812 25.1202 178.012 21.1924 173.325 18.6386C168.638 16.0848 163.287 15.0264 157.985 15.6047H157.982C157.926 15.6094 157.867 15.6165 157.81 15.6236C157.714 15.633 157.62 15.6448 157.525 15.6566C157.332 15.6826 157.144 15.7086 156.956 15.737C156.796 15.7606 156.633 15.7866 156.473 15.815C156.388 15.8268 156.306 15.8409 156.224 15.8575C156.141 15.8717 156.056 15.8858 155.974 15.9024H155.972C154.391 16.2025 152.842 16.6494 151.343 17.2374H151.341V17.2398L150.962 17.3886C150.571 17.5493 150.184 17.7194 149.799 17.899C149.712 17.9392 149.627 17.9817 149.54 18.0219C149.517 18.0337 149.491 18.0455 149.467 18.0597C149.22 18.1779 148.975 18.3007 148.733 18.4307C148.697 18.4472 148.662 18.4661 148.627 18.485L148.401 18.6055C147.904 18.8749 147.416 19.1608 146.936 19.4633C146.896 19.4869 146.859 19.5105 146.819 19.5365C146.776 19.5649 146.732 19.5932 146.689 19.6216C146.663 19.6358 146.637 19.6547 146.611 19.6712C146.539 19.7161 146.468 19.7634 146.397 19.813C146.256 19.9051 146.115 19.9997 145.976 20.0965C145.832 20.1934 145.691 20.295 145.55 20.3966L145.408 20.4982L145.434 20.6731C145.458 20.8172 145.479 20.9614 145.505 21.1031C145.529 21.2449 145.552 21.3843 145.578 21.5237C145.618 21.7577 145.663 21.9892 145.707 22.2137C145.738 22.3626 145.766 22.5091 145.799 22.6532C145.83 22.8021 145.863 22.9509 145.898 23.0998C145.966 23.407 146.039 23.7047 146.117 23.9977C146.155 24.1442 146.195 24.2907 146.237 24.4348C146.261 24.5223 146.284 24.6097 146.31 24.6948C146.329 24.7538 146.348 24.8129 146.367 24.872C146.371 24.8909 146.376 24.9121 146.383 24.9334C146.388 24.9534 146.395 24.9732 146.402 24.9925C146.428 25.0799 146.454 25.165 146.48 25.2477C146.494 25.2926 146.508 25.3375 146.524 25.38C146.557 25.4816 146.593 25.5856 146.628 25.6848C146.666 25.7982 146.706 25.9117 146.746 26.0227C146.755 26.0511 146.765 26.0771 146.774 26.1054C146.781 26.1267 146.788 26.1479 146.797 26.1692C146.807 26.1928 146.816 26.2188 146.826 26.2425C146.866 26.3488 146.906 26.4575 146.948 26.5638C146.962 26.6016 146.976 26.6418 146.993 26.6796C147.375 27.6422 147.843 28.5676 148.394 29.4442C147.784 28.9196 147.197 28.3636 146.633 27.776C145.762 26.8675 144.959 25.8952 144.231 24.8672C144.173 24.7869 144.114 24.7042 144.06 24.6215C143.949 24.4632 143.841 24.3049 143.735 24.1442C143.622 23.9788 143.513 23.8063 143.407 23.6362C143.337 23.5228 143.266 23.407 143.198 23.2936C143.13 23.1849 143.066 23.0785 143.005 22.9698L142.821 22.6532H142.819V22.6556L142.56 22.9107C142.456 23.0124 142.353 23.114 142.252 23.2156C139.087 26.411 136.796 30.3697 135.596 34.7111L135.561 34.8411L135.526 34.9758C135.457 35.2168 135.389 35.4507 135.316 35.6894V35.6917C135.245 35.928 135.17 36.1643 135.09 36.3959C135.017 36.6156 134.942 36.833 134.862 37.0504C134.836 37.1236 134.808 37.1969 134.777 37.2701C134.728 37.4119 134.673 37.5513 134.619 37.6931C134.593 37.7569 134.567 37.8231 134.542 37.8869C134.478 38.0428 134.414 38.1988 134.351 38.3524C134.341 38.376 134.33 38.402 134.318 38.4256C134.299 38.4729 134.278 38.5201 134.259 38.565C134.21 38.6784 134.158 38.7942 134.108 38.9076C134.073 38.9809 134.04 39.0565 134.007 39.1298C133.993 39.1628 133.977 39.1959 133.962 39.229C133.875 39.418 133.786 39.6047 133.692 39.789C133.586 40.0064 133.477 40.2238 133.362 40.4365C133.261 40.6349 133.155 40.8287 133.044 41.0225C132.854 41.3651 132.654 41.7053 132.446 42.0361C132.366 42.1637 132.286 42.2913 132.204 42.4189C132.185 42.4497 132.166 42.4804 132.147 42.5087C132.079 42.6198 132.008 42.7261 131.936 42.8348C131.886 42.9081 131.837 42.9813 131.787 43.0522C131.705 43.1798 131.618 43.3027 131.528 43.4232C131.505 43.461 131.479 43.4964 131.453 43.5319C131.321 43.7162 131.189 43.8958 131.055 44.0753C131.05 44.0777 131.05 44.0801 131.048 44.0824C131.043 44.0824 131.043 44.0848 131.041 44.0872C130.982 44.1651 130.923 44.2431 130.862 44.3187C130.782 44.4298 130.695 44.5385 130.608 44.6448C130.466 44.8244 130.318 45.0063 130.168 45.1835C130.163 45.1883 130.16 45.193 130.156 45.1954C129.376 46.1152 128.531 46.9776 127.627 47.7757C127.611 47.7898 127.599 47.804 127.583 47.8158C127.455 47.9269 127.328 48.0379 127.197 48.1466C127.142 48.1915 127.088 48.2364 127.034 48.2813C126.945 48.3569 126.853 48.4325 126.763 48.5011C126.753 48.5119 126.741 48.5214 126.728 48.5294C126.648 48.5956 126.57 48.657 126.49 48.7185C126.394 48.7964 126.297 48.8697 126.198 48.9429C125.732 49.2974 125.254 49.6321 124.762 49.9472C124.689 49.9968 124.612 50.0464 124.536 50.0937C124.492 50.122 124.447 50.1504 124.404 50.174C124.226 50.2851 124.047 50.3938 123.868 50.4977C123.689 50.6041 123.505 50.7057 123.324 50.8049C122.935 51.0176 122.552 51.2397 122.177 51.4712C121.989 51.5894 121.801 51.7075 121.615 51.828C120.876 52.3101 120.164 52.826 119.48 53.3758C118.795 53.9258 118.139 54.5102 117.514 55.1267C117.436 55.2023 117.358 55.2803 117.281 55.3606C117.125 55.5142 116.975 55.6701 116.831 55.8261C116.6 56.0647 116.379 56.3105 116.16 56.5586C115.006 57.8734 113.984 59.2997 113.109 60.8166C112.67 61.574 112.271 62.354 111.913 63.1535C111.642 63.7513 111.395 64.3633 111.172 64.9824C111.023 65.3959 110.884 65.8133 110.755 66.2347C110.691 66.445 110.63 66.6577 110.571 66.8703C110.371 67.591 110.204 68.3188 110.067 69.0489C109.957 69.6349 109.867 70.2217 109.799 70.8093C109.764 71.1047 109.736 71.4 109.71 71.693C109.649 72.4132 109.618 73.134 109.617 73.8556C109.613 76.0203 109.875 78.1772 110.397 80.2775C110.512 80.7406 110.64 81.2014 110.781 81.6598C110.851 81.889 110.927 82.1158 111.002 82.3426C111.193 82.9097 111.404 83.4713 111.635 84.0274C111.774 84.3606 111.92 84.6914 112.073 85.0198C113.046 87.1078 114.287 89.0589 115.765 90.8231C116.007 91.1138 116.257 91.3997 116.516 91.6809C116.518 91.6809 116.516 91.6832 116.516 91.6832C117.156 92.3845 117.834 93.0503 118.547 93.6775H118.55C118.834 93.9303 119.124 94.1753 119.418 94.4124C119.421 94.41 119.421 94.4124 119.421 94.4124C119.717 94.6534 120.016 94.885 120.322 95.1094C120.475 95.2205 120.631 95.3316 120.788 95.4426C121.097 95.6624 121.412 95.8742 121.732 96.0782H121.735C122.055 96.2862 122.38 96.4846 122.709 96.6737C123.371 97.0541 124.049 97.4109 124.746 97.7346L124.864 97.789L124.984 97.7346C126.101 97.23 127.253 96.8059 128.43 96.4658C128.689 96.3901 128.95 96.3216 129.209 96.2555C129.864 96.0924 130.523 95.9554 131.187 95.8443C130.54 96.17 129.916 96.5386 129.318 96.9478C128.854 97.2621 128.397 97.6047 127.938 97.9827C127.785 98.108 127.632 98.2379 127.479 98.3703L127.098 98.7011L127.576 98.8594C127.75 98.9161 127.924 98.9728 128.098 99.0248C128.336 99.1004 128.571 99.1689 128.802 99.2327C129.306 99.3745 129.813 99.4997 130.323 99.6084C130.448 99.6344 130.57 99.6604 130.695 99.6864C130.937 99.7337 131.182 99.7809 131.427 99.8234C131.437 99.826 131.447 99.8276 131.458 99.8282C131.712 99.8707 131.968 99.9109 132.223 99.9463C132.696 100.015 133.169 100.069 133.642 100.109C133.694 100.116 133.746 100.119 133.8 100.121C133.915 100.131 134.028 100.14 134.144 100.147C134.398 100.164 134.655 100.176 134.911 100.185C134.93 100.185 134.947 100.187 134.965 100.187C135.095 100.192 135.224 100.197 135.354 100.199C135.354 100.199 135.354 100.202 135.356 100.199C135.486 100.202 135.615 100.204 135.745 100.204H136.46C136.594 100.204 136.729 100.206 136.865 100.206C137.054 100.206 137.244 100.209 137.433 100.211C137.482 100.211 137.534 100.213 137.586 100.213C137.887 100.218 138.188 100.225 138.49 100.232C138.508 100.232 138.527 100.235 138.546 100.235C138.847 100.244 139.149 100.253 139.45 100.268C139.516 100.27 139.582 100.272 139.65 100.277C139.94 100.289 140.229 100.303 140.519 100.32C140.601 100.324 140.686 100.331 140.771 100.336C140.99 100.348 141.211 100.362 141.43 100.379C141.559 100.386 141.687 100.395 141.816 100.407C142.339 100.447 142.859 100.492 143.382 100.544C143.556 100.558 143.73 100.577 143.904 100.596C144.37 100.646 144.838 100.7 145.307 100.759C145.517 100.783 145.726 100.811 145.936 100.839C145.959 100.842 145.983 100.844 146.006 100.849C146.265 100.884 146.522 100.92 146.781 100.958C146.951 100.981 147.12 101.007 147.29 101.033C147.464 101.059 147.638 101.085 147.812 101.116C147.906 101.13 148 101.147 148.097 101.163C148.323 101.199 148.551 101.236 148.78 101.279C148.8 101.281 148.821 101.284 148.841 101.288C149.326 101.374 149.813 101.463 150.298 101.56C150.583 101.615 150.866 101.671 151.148 101.73C151.369 101.775 151.591 101.822 151.812 101.87C151.85 101.877 151.887 101.886 151.925 101.896C151.933 101.898 151.942 101.9 151.951 101.9C152.285 101.974 152.622 102.049 152.956 102.13C154.117 102.399 155.276 102.698 156.433 103.028C156.699 103.101 156.965 103.179 157.231 103.257C157.344 103.29 157.455 103.323 157.566 103.356C157.796 103.425 158.025 103.493 158.255 103.566C158.458 103.628 158.663 103.692 158.865 103.758C158.992 103.798 159.119 103.838 159.246 103.881C159.444 103.942 159.642 104.006 159.837 104.074C160.004 104.126 160.169 104.181 160.334 104.24C160.569 104.318 160.807 104.398 161.043 104.483C161.111 104.507 161.182 104.53 161.25 104.556C161.537 104.656 161.824 104.757 162.111 104.864C162.392 104.965 162.672 105.069 162.95 105.173C163.143 105.246 163.336 105.317 163.526 105.393C163.741 105.476 163.955 105.558 164.167 105.643C164.473 105.764 164.781 105.887 165.087 106.012C165.37 106.125 165.65 106.241 165.932 106.362C165.984 106.383 166.038 106.404 166.09 106.428C166.335 106.529 166.58 106.636 166.822 106.742C166.98 106.808 167.135 106.877 167.291 106.945C167.969 107.243 168.646 107.551 169.322 107.869H169.325C169.748 108.07 170.179 108.261 170.612 108.443C170.714 108.486 170.815 108.528 170.918 108.569C171.09 108.642 171.265 108.71 171.439 108.781C171.552 108.826 171.665 108.871 171.78 108.914C171.947 108.98 172.117 109.044 172.286 109.105C172.465 109.171 172.642 109.237 172.823 109.299C172.887 109.322 172.95 109.344 173.016 109.367C173.226 109.438 173.435 109.509 173.647 109.578C173.668 109.585 173.689 109.592 173.713 109.599C173.934 109.67 174.155 109.741 174.379 109.807C174.397 109.813 174.415 109.819 174.433 109.823C174.673 109.897 174.918 109.967 175.161 110.036C175.519 110.135 175.879 110.23 176.239 110.317C176.305 110.334 176.371 110.35 176.437 110.364C176.63 110.412 176.82 110.457 177.013 110.499C177.218 110.546 177.425 110.589 177.63 110.631C177.837 110.674 178.045 110.716 178.249 110.754C178.36 110.776 178.471 110.797 178.579 110.816L178.869 110.865C179.069 110.901 179.269 110.931 179.471 110.965C179.477 110.964 179.482 110.965 179.488 110.967C179.716 111.002 179.942 111.035 180.17 111.064C180.389 111.095 180.608 111.121 180.827 111.147C180.872 111.151 180.919 111.156 180.966 111.161C181.147 111.182 181.329 111.203 181.51 111.22C181.562 111.224 181.614 111.229 181.665 111.234C181.844 111.25 182.023 111.267 182.202 111.279C182.238 111.284 182.274 111.286 182.31 111.286C182.47 111.3 182.631 111.312 182.791 111.319C182.904 111.328 183.014 111.333 183.127 111.34C183.186 111.343 183.243 111.345 183.302 111.347C183.457 111.357 183.612 111.362 183.77 111.366C183.961 111.373 184.151 111.378 184.34 111.383C184.568 111.388 184.799 111.39 185.027 111.39H185.032C185.255 111.39 185.481 111.388 185.705 111.383H185.79L186.037 111.376C186.164 111.373 186.291 111.369 186.416 111.364C186.656 111.354 186.894 111.343 187.132 111.328C187.226 111.324 187.322 111.317 187.417 111.312C187.459 111.31 187.504 111.305 187.546 111.302C187.694 111.293 187.84 111.284 187.989 111.272C188.142 111.26 188.297 111.246 188.45 111.229C188.648 111.21 188.846 111.189 189.043 111.168C189.199 111.151 189.354 111.132 189.507 111.113C189.528 111.112 189.548 111.108 189.568 111.104C189.717 111.087 189.865 111.069 190.011 111.047C190.185 111.024 190.357 110.998 190.529 110.972C190.548 110.969 190.564 110.967 190.583 110.965C190.88 110.917 191.179 110.87 191.478 110.816C191.791 110.759 192.104 110.698 192.415 110.634C192.53 110.61 192.643 110.584 192.758 110.561C192.822 110.546 192.888 110.535 192.949 110.52C193.046 110.499 193.14 110.478 193.234 110.454C193.25 110.452 193.269 110.447 193.286 110.445C193.417 110.416 193.547 110.383 193.679 110.35C193.942 110.286 194.201 110.22 194.46 110.149C194.576 110.121 194.691 110.09 194.802 110.06C194.835 110.05 194.868 110.041 194.898 110.031C195.376 109.897 195.85 109.754 196.32 109.604C196.527 109.537 196.732 109.469 196.937 109.396C197.377 109.244 197.814 109.085 198.246 108.918C198.361 108.876 198.477 108.829 198.592 108.784C198.762 108.715 198.931 108.647 199.098 108.578C199.249 108.514 199.399 108.45 199.553 108.384C199.628 108.354 199.703 108.32 199.778 108.287C200.005 108.188 200.231 108.087 200.454 107.985C200.605 107.914 200.753 107.846 200.901 107.775C201.137 107.661 201.37 107.545 201.603 107.43C201.662 107.399 201.718 107.368 201.775 107.34C201.923 107.264 202.071 107.186 202.222 107.111C202.46 106.983 202.698 106.855 202.933 106.723C203.013 106.681 203.091 106.636 203.171 106.591C203.43 106.444 203.686 106.295 203.941 106.144C204.503 105.806 205.058 105.453 205.605 105.086C205.742 104.996 205.878 104.901 206.012 104.809C206.267 104.634 206.516 104.455 206.766 104.275C206.792 104.256 206.815 104.237 206.841 104.221C206.966 104.129 207.091 104.037 207.215 103.942C207.474 103.746 207.731 103.547 207.988 103.344C207.992 103.342 207.999 103.335 208.006 103.33C208.122 103.238 208.237 103.146 208.35 103.054C208.701 102.768 209.047 102.477 209.386 102.177C209.553 102.033 209.718 101.884 209.88 101.735C210.003 101.624 210.125 101.513 210.245 101.4C210.488 101.17 210.725 100.943 210.961 100.712C211.079 100.599 211.194 100.48 211.312 100.362C211.427 100.244 211.545 100.126 211.66 100.005C211.7 99.9652 211.74 99.9227 211.78 99.8802C211.898 99.755 212.016 99.6273 212.133 99.5021C212.234 99.3934 212.333 99.28 212.435 99.1666C212.604 98.9775 212.776 98.7885 212.943 98.5971C212.952 98.5864 212.961 98.5761 212.971 98.5664C212.981 98.5546 212.99 98.5452 212.997 98.5357H212.995C216.417 94.564 218.959 89.9082 220.454 84.8763C221.949 79.8445 222.362 74.5514 221.666 69.3473C220.97 64.1432 219.181 59.1467 216.417 54.6886C213.653 50.2305 209.978 46.4124 205.633 43.487L205.633 43.487Z" fill="#2C2C2C"/>
<g opacity="0.15">
<path opacity="0.15" d="M157.983 15.6028C158.452 17.2947 159.158 18.9113 160.08 20.4042C158.537 19.0738 157.158 17.5626 155.974 15.903C156.639 15.7767 157.309 15.6766 157.983 15.6028Z" fill="black"/>
<path opacity="0.15" d="M135.012 41.7689C133.269 42.7234 131.64 43.8728 130.155 45.1952C132.662 42.2198 134.494 38.7327 135.525 34.9758C135.537 34.9306 135.55 34.8852 135.562 34.84L135.597 34.7121C136.835 30.2282 139.238 26.1548 142.559 22.9086L142.82 22.6532L143.005 22.9688C144.023 24.7064 145.241 26.3177 146.635 27.7694C144.499 33.817 140.344 38.8503 135.012 41.7689Z" fill="black"/>
<path opacity="0.15" d="M147.283 25.674L147.248 25.8018C147.236 25.847 147.224 25.8925 147.211 25.9376C147.142 26.1863 147.069 26.433 146.994 26.6788C146.249 24.7427 145.726 22.7278 145.435 20.6731L145.408 20.4988L145.551 20.3963C147.342 19.1043 149.288 18.0427 151.342 17.2363C149.497 19.7827 148.123 22.6405 147.283 25.674Z" fill="black"/>
<path opacity="0.15" d="M123.325 50.8071C124.867 49.9599 126.31 48.9431 127.628 47.7753C124.996 50.8515 123.109 54.4977 122.115 58.4283C121.121 62.3588 121.048 66.4669 121.901 70.4307C122.754 74.3944 124.509 78.1061 127.03 81.2749C129.551 84.4438 132.769 86.9836 136.431 88.6955L136.551 88.7507L136.669 88.6968C138.648 87.7998 140.733 87.1641 142.874 86.8056C141.538 87.4889 140.292 88.3377 139.166 89.3323L138.786 89.6628L139.263 89.8212C139.676 89.9581 140.088 90.084 140.489 90.1957C142.845 90.8544 145.281 91.1815 147.727 91.1677C158.839 91.0963 170.037 93.6748 181.011 98.8315C182.893 99.7146 184.844 100.439 186.846 100.996C195.57 103.434 204.882 102.557 213.002 98.5335C208.424 103.847 202.439 107.749 195.74 109.784C189.042 111.82 181.905 111.907 175.16 110.034C173.158 109.477 171.206 108.753 169.324 107.87C158.351 102.713 147.152 100.134 136.04 100.206C133.595 100.22 131.159 99.8925 128.803 99.2339C128.402 99.1222 127.989 98.9962 127.577 98.8593L127.099 98.701L127.48 98.3704C128.606 97.3759 129.852 96.527 131.188 95.8437C129.047 96.2022 126.961 96.8379 124.983 97.735L124.864 97.7888L124.745 97.7336C120.347 95.6789 116.604 92.4379 113.934 88.3724C111.264 84.3068 109.773 79.5766 109.625 74.7096C109.478 69.8426 110.681 65.0303 113.1 60.8096C115.519 56.5889 119.059 53.1259 123.325 50.8071L123.325 50.8071Z" fill="black"/>
</g>
</g>
<defs>
<clipPath id="clip0_442_769">
<rect width="222" height="188" fill="white"/>
</clipPath>
</defs>
</svg>
