<svg width="24" height="24" viewBox="0 0 24 24" fill="none" xmlns="http://www.w3.org/2000/svg">
<path d="M3.96959 12.072C3.84479 12.072 3.72959 12.0336 3.62879 11.9568C3.37919 11.7696 3.32639 11.4096 3.51359 11.16C4.51199 9.86879 5.81279 8.79839 7.27679 8.06879C8.73599 7.33919 10.3728 6.94079 12.0048 6.91199C13.6368 6.93599 15.2736 7.33439 16.7328 8.06399C18.192 8.79359 19.4928 9.86399 20.4912 11.1552C20.5824 11.2752 20.6208 11.4288 20.5968 11.5776C20.5728 11.7264 20.496 11.8608 20.376 11.952C20.2752 12.0288 20.16 12.0672 20.0352 12.0672C19.8576 12.0672 19.6848 11.9808 19.5792 11.8368L19.5744 11.8272C17.7408 9.48959 14.9856 8.11679 12.0192 8.04959H12.0096H12C9.03359 8.11679 6.27839 9.49439 4.44479 11.8272L4.43999 11.8368C4.31999 11.9856 4.15199 12.072 3.96959 12.072Z" fill="#EEEEEE"/>
<path d="M17.0497 15.1392C16.8241 15.1392 16.6225 15.0048 16.5265 14.8032L16.5217 14.7888L16.5169 14.7744C16.0369 13.8768 15.3073 13.1472 14.4097 12.6672C13.6705 12.2736 12.8353 12.0624 12.0049 12.0624C10.1137 12.0624 8.38569 13.0944 7.49289 14.7552C7.38729 14.9184 7.20969 15.0144 7.01289 15.0144C6.93129 15.0144 6.85449 14.9952 6.77769 14.9664C6.49449 14.8368 6.36489 14.5056 6.48489 14.2224C7.56969 12.1872 9.67689 10.9248 11.9857 10.9248H12.0097C14.3233 10.9248 16.4353 12.192 17.5153 14.2368L17.5201 14.2464L17.5249 14.256C17.5393 14.2848 17.5537 14.3088 17.5633 14.328C17.6257 14.4672 17.6305 14.6256 17.5777 14.7648C17.5249 14.9088 17.4145 15.0192 17.2753 15.0816C17.2081 15.1248 17.1313 15.1392 17.0497 15.1392Z" fill="#EEEEEE"/>
<path d="M9.98868 17.088C9.86388 17.088 9.74868 17.0496 9.64788 16.9728C9.52788 16.8816 9.44628 16.7472 9.42708 16.5984C9.40788 16.4496 9.44148 16.3008 9.53268 16.176C10.1279 15.408 11.0255 14.9568 11.9999 14.9424C12.9743 14.9568 13.8719 15.408 14.4671 16.176C14.6543 16.4256 14.6015 16.7856 14.3519 16.9728C14.2511 17.0496 14.1359 17.088 14.0111 17.088C13.8335 17.088 13.6607 17.0016 13.5551 16.8576C13.4447 16.7088 13.3151 16.5792 13.1663 16.4688C12.8303 16.2144 12.4271 16.08 12.0047 16.08C11.3999 16.08 10.8191 16.368 10.4543 16.8528C10.3391 17.0064 10.1711 17.088 9.98868 17.088Z" fill="#EEEEEE"/>
</svg>
